<svg width="110" height="32" viewBox="0 0 110 32" fill="none" xmlns="http://www.w3.org/2000/svg">
<path d="M0 3C0 1.34315 1.34315 0 3 0H107C108.657 0 110 1.34315 110 3V29C110 30.6569 108.657 32 107 32H3C1.34314 32 0 30.6569 0 29V3Z" fill="#2BB0A8"/>
<path d="M27.0241 18.491C27.0241 19.3143 26.7251 19.96 26.1271 20.428C25.5291 20.896 24.7101 21.13 23.6701 21.13C23.1674 21.13 22.6907 21.0867 22.2401 21C21.7981 20.922 21.4211 20.805 21.1091 20.649V19.323C21.4557 19.479 21.8631 19.622 22.3311 19.752C22.7991 19.8733 23.2757 19.934 23.7611 19.934C24.3851 19.934 24.8531 19.8127 25.1651 19.57C25.4771 19.3273 25.6331 19.0023 25.6331 18.595C25.6331 18.309 25.5594 18.0707 25.4121 17.88C25.2734 17.6807 25.0524 17.4987 24.7491 17.334C24.4457 17.1693 24.0471 16.9873 23.5531 16.788C23.0937 16.6147 22.6864 16.411 22.3311 16.177C21.9844 15.943 21.7114 15.6527 21.5121 15.306C21.3127 14.9593 21.2131 14.5347 21.2131 14.032C21.2131 13.2693 21.4904 12.6713 22.0451 12.238C22.5997 11.8047 23.3277 11.588 24.2291 11.588C24.7317 11.588 25.1954 11.64 25.6201 11.744C26.0534 11.8393 26.4651 11.9737 26.8551 12.147L26.4131 13.304C26.0577 13.1567 25.6937 13.0353 25.3211 12.94C24.9571 12.8447 24.5801 12.797 24.1901 12.797C23.6787 12.797 23.2887 12.9097 23.0201 13.135C22.7514 13.3603 22.6171 13.655 22.6171 14.019C22.6171 14.305 22.6821 14.5477 22.8121 14.747C22.9421 14.9377 23.1501 15.111 23.4361 15.267C23.7221 15.423 24.0991 15.5963 24.5671 15.787C25.0871 15.995 25.5291 16.216 25.8931 16.45C26.2657 16.6753 26.5474 16.9527 26.7381 17.282C26.9287 17.6027 27.0241 18.0057 27.0241 18.491ZM32.4815 13.863C33.4002 13.863 34.1239 14.149 34.6525 14.721C35.1812 15.2843 35.4455 16.0557 35.4455 17.035V17.789H30.7395C30.7569 18.5083 30.9432 19.0587 31.2985 19.44C31.6625 19.8213 32.1695 20.012 32.8195 20.012C33.2702 20.012 33.6689 19.973 34.0155 19.895C34.3709 19.8083 34.7349 19.6827 35.1075 19.518V20.662C34.7522 20.818 34.3969 20.935 34.0415 21.013C33.6862 21.091 33.2615 21.13 32.7675 21.13C32.0829 21.13 31.4805 20.9957 30.9605 20.727C30.4492 20.4583 30.0462 20.0597 29.7515 19.531C29.4655 18.9937 29.3225 18.335 29.3225 17.555C29.3225 16.7663 29.4525 16.099 29.7125 15.553C29.9812 15.007 30.3495 14.591 30.8175 14.305C31.2942 14.0103 31.8489 13.863 32.4815 13.863ZM32.4815 14.929C31.9875 14.929 31.5889 15.0893 31.2855 15.41C30.9909 15.7307 30.8175 16.1857 30.7655 16.775H34.0675C34.0589 16.229 33.9245 15.787 33.6645 15.449C33.4132 15.1023 33.0189 14.929 32.4815 14.929ZM40.922 13.863C41.7973 13.863 42.4517 14.058 42.885 14.448C43.327 14.8293 43.548 15.4317 43.548 16.255V21H42.573L42.3 20.025H42.248C41.9447 20.4063 41.624 20.688 41.286 20.87C40.9567 21.0433 40.4973 21.13 39.908 21.13C39.2753 21.13 38.751 20.961 38.335 20.623C37.919 20.2763 37.711 19.739 37.711 19.011C37.711 18.3003 37.9797 17.7587 38.517 17.386C39.0543 17.0133 39.882 16.8097 41 16.775L42.196 16.736V16.346C42.196 15.8347 42.079 15.475 41.845 15.267C41.611 15.0503 41.2817 14.942 40.857 14.942C40.5017 14.942 40.1593 14.994 39.83 15.098C39.5007 15.202 39.1843 15.3277 38.881 15.475L38.439 14.474C38.7683 14.3007 39.1453 14.1577 39.57 14.045C40.0033 13.9237 40.454 13.863 40.922 13.863ZM41.247 17.659C40.4497 17.6937 39.895 17.828 39.583 18.062C39.2797 18.2873 39.128 18.608 39.128 19.024C39.128 19.388 39.2363 19.6523 39.453 19.817C39.6697 19.9817 39.9513 20.064 40.298 20.064C40.8353 20.064 41.2817 19.9123 41.637 19.609C42.001 19.3057 42.183 18.8507 42.183 18.244V17.633L41.247 17.659ZM50.1678 13.863C50.2892 13.863 50.4192 13.8717 50.5578 13.889C50.7052 13.8977 50.8308 13.9107 50.9348 13.928L50.7918 15.215C50.5665 15.1543 50.3325 15.124 50.0898 15.124C49.7432 15.124 49.4138 15.2107 49.1018 15.384C48.7985 15.5573 48.5515 15.8087 48.3608 16.138C48.1788 16.4587 48.0878 16.8487 48.0878 17.308V21H46.7098V13.993H47.8018L47.9838 15.241H48.0358C48.2612 14.8683 48.5515 14.5477 48.9068 14.279C49.2622 14.0017 49.6825 13.863 50.1678 13.863ZM55.8394 21.13C54.8687 21.13 54.0887 20.844 53.4994 20.272C52.9101 19.6913 52.6154 18.7813 52.6154 17.542C52.6154 16.6753 52.7584 15.9733 53.0444 15.436C53.3304 14.8987 53.7247 14.5043 54.2274 14.253C54.7301 13.993 55.3021 13.863 55.9434 13.863C56.3334 13.863 56.6974 13.9063 57.0354 13.993C57.3821 14.071 57.6681 14.162 57.8934 14.266L57.4774 15.384C57.2347 15.2887 56.9747 15.2063 56.6974 15.137C56.4287 15.0677 56.1731 15.033 55.9304 15.033C54.6651 15.033 54.0324 15.865 54.0324 17.529C54.0324 18.3263 54.1884 18.933 54.5004 19.349C54.8124 19.765 55.2717 19.973 55.8784 19.973C56.2684 19.973 56.6107 19.9297 56.9054 19.843C57.2087 19.7563 57.4861 19.6437 57.7374 19.505V20.701C57.4861 20.8483 57.2131 20.9567 56.9184 21.026C56.6237 21.0953 56.2641 21.13 55.8394 21.13ZM61.8094 13.759C61.8094 13.9843 61.8008 14.2053 61.7834 14.422C61.7661 14.63 61.7488 14.8033 61.7314 14.942H61.8224C62.0478 14.578 62.3468 14.3093 62.7194 14.136C63.1008 13.9627 63.5124 13.876 63.9544 13.876C64.7778 13.876 65.4061 14.0797 65.8394 14.487C66.2814 14.8943 66.5024 15.5443 66.5024 16.437V21H65.1374V16.632C65.1374 15.54 64.6564 14.994 63.6944 14.994C62.9751 14.994 62.4811 15.2107 62.2124 15.644C61.9438 16.0687 61.8094 16.6797 61.8094 17.477V21H60.4314V11.12H61.8094V13.759Z" fill="white" fill-opacity="0.9"/>
<path d="M89.8359 20.3828L87.4922 18.0391C87.375 17.9453 87.2344 17.875 87.0938 17.875H86.7188C87.3516 17.0547 87.75 16.0234 87.75 14.875C87.75 12.2031 85.5469 10 82.875 10C80.1797 10 78 12.2031 78 14.875C78 17.5703 80.1797 19.75 82.875 19.75C84 19.75 85.0312 19.375 85.875 18.7188V19.1172C85.875 19.2578 85.9219 19.3984 86.0391 19.5156L88.3594 21.8359C88.5938 22.0703 88.9453 22.0703 89.1562 21.8359L89.8125 21.1797C90.0469 20.9688 90.0469 20.6172 89.8359 20.3828ZM82.875 17.875C81.2109 17.875 79.875 16.5391 79.875 14.875C79.875 13.2344 81.2109 11.875 82.875 11.875C84.5156 11.875 85.875 13.2344 85.875 14.875C85.875 16.5391 84.5156 17.875 82.875 17.875Z" fill="white" fill-opacity="0.9"/>
</svg>
