<svg width="15" height="13" viewBox="0 0 15 13" fill="none" xmlns="http://www.w3.org/2000/svg">
<path d="M7.5 9.875C5.71875 9.875 4.26562 8.51562 4.14844 6.75781L1.6875 4.85938C1.35938 5.28125 1.05469 5.70312 0.820312 6.17188C0.773438 6.26562 0.75 6.38281 0.75 6.5C0.75 6.64062 0.773438 6.75781 0.820312 6.85156C2.08594 9.33594 4.61719 11 7.5 11C8.10938 11 8.71875 10.9062 9.30469 10.7656L8.10938 9.82812C7.89844 9.875 7.6875 9.875 7.5 9.875ZM14.8359 11.2578L12.2578 9.24219C13.0312 8.58594 13.6875 7.76562 14.1562 6.85156C14.2031 6.75781 14.2266 6.64062 14.2266 6.52344C14.2266 6.38281 14.2031 6.26562 14.1562 6.17188C12.8906 3.6875 10.3594 2 7.5 2C6.23438 2.02344 5.0625 2.32812 4.03125 2.89062L1.05469 0.59375C0.984375 0.546875 0.914062 0.523438 0.820312 0.523438C0.703125 0.523438 0.585938 0.570312 0.539062 0.664062L0.0703125 1.25C0.0234375 1.32031 0 1.39062 0 1.48438C0 1.60156 0.046875 1.69531 0.140625 1.76562L13.9219 12.4297C13.9922 12.4766 14.0625 12.5 14.1562 12.5C14.2734 12.5 14.3906 12.4531 14.4609 12.3594L14.9062 11.7734C14.9531 11.7031 14.9766 11.6328 14.9766 11.5391C14.9766 11.4219 14.9297 11.3281 14.8359 11.2578ZM10.5469 7.92969L9.60938 7.20312C9.70312 6.99219 9.72656 6.75781 9.75 6.5C9.75 6.5 9.75 6.5 9.75 6.47656C9.75 5.25781 8.74219 4.25 7.52344 4.25C7.3125 4.25 7.10156 4.29688 6.89062 4.34375C7.03125 4.53125 7.10156 4.76562 7.125 5C7.10156 5.09375 7.10156 5.16406 7.07812 5.23438L5.34375 3.92188C5.92969 3.42969 6.67969 3.14844 7.5 3.125C9.35156 3.125 10.875 4.64844 10.875 6.5C10.875 7.01562 10.7344 7.48438 10.5469 7.92969Z" fill="#9F9F9F"/>
</svg>
