<svg width="14" height="9" viewBox="0 0 14 9" fill="none" xmlns="http://www.w3.org/2000/svg">
<path d="M13.6562 4.17188C12.3906 1.6875 9.85938 0 7 0C4.11719 0 1.58594 1.6875 0.320312 4.17188C0.273438 4.26562 0.25 4.38281 0.25 4.5C0.25 4.64062 0.273438 4.75781 0.320312 4.85156C1.58594 7.33594 4.11719 9 7 9C9.85938 9 12.3906 7.33594 13.6562 4.85156C13.7031 4.75781 13.7266 4.64062 13.7266 4.52344C13.7266 4.38281 13.7031 4.26562 13.6562 4.17188ZM7 7.875C5.125 7.875 3.625 6.375 3.625 4.5C3.625 2.64844 5.125 1.125 7 1.125C8.85156 1.125 10.375 2.64844 10.375 4.5V4.52344C10.375 6.375 8.85156 7.89844 7 7.89844V7.875ZM7 2.25C6.78906 2.27344 6.57812 2.29688 6.39062 2.34375C6.53125 2.53125 6.60156 2.76562 6.60156 3.02344C6.60156 3.63281 6.10938 4.125 5.5 4.125C5.24219 4.125 5.00781 4.05469 4.82031 3.91406C4.77344 4.10156 4.75 4.3125 4.75 4.5C4.75 5.74219 5.75781 6.75 7 6.75C8.24219 6.75 9.25 5.74219 9.25 4.5C9.25 3.25781 8.24219 2.27344 7 2.27344V2.25Z" fill="#9F9F9F"/>
</svg>
