<svg width="21" height="21" viewBox="0 0 21 21" fill="none" xmlns="http://www.w3.org/2000/svg">
<g filter="url(#filter0_d_60_3941)">
<rect x="4" y="4" width="13" height="13" rx="1" fill="#29AE47" shape-rendering="crispEdges"/>
<path d="M11.4375 12.8125C11.4375 12.2969 11.0156 11.875 10.5 11.875C9.97266 11.875 9.5625 12.2969 9.5625 12.8125C9.5625 13.3398 9.97266 13.75 10.5 13.75C11.0156 13.75 11.4375 13.3398 11.4375 12.8125ZM9.66797 8.05469L9.82031 11.2422C9.83203 11.3828 9.96094 11.5 10.1016 11.5H10.8867C11.0273 11.5 11.1562 11.3828 11.168 11.2422L11.3203 8.05469C11.332 7.89062 11.2031 7.75 11.0391 7.75H9.94922C9.78516 7.75 9.65625 7.89062 9.66797 8.05469Z" fill="white"/>
</g>
<defs>
<filter id="filter0_d_60_3941" x="0" y="0" width="21" height="21" filterUnits="userSpaceOnUse" color-interpolation-filters="sRGB">
<feFlood flood-opacity="0" result="BackgroundImageFix"/>
<feColorMatrix in="SourceAlpha" type="matrix" values="0 0 0 0 0 0 0 0 0 0 0 0 0 0 0 0 0 0 127 0" result="hardAlpha"/>
<feOffset/>
<feGaussianBlur stdDeviation="2"/>
<feComposite in2="hardAlpha" operator="out"/>
<feColorMatrix type="matrix" values="0 0 0 0 0.294365 0 0 0 0 0.9625 0 0 0 0 0.280729 0 0 0 0.25 0"/>
<feBlend mode="normal" in2="BackgroundImageFix" result="effect1_dropShadow_60_3941"/>
<feBlend mode="normal" in="SourceGraphic" in2="effect1_dropShadow_60_3941" result="shape"/>
</filter>
</defs>
</svg>
