<svg width="12" height="13" viewBox="0 0 12 13" fill="none" xmlns="http://www.w3.org/2000/svg">
<path d="M10.875 5.40625H7.21875V1.75C7.21875 1.31836 6.83789 0.9375 6.40625 0.9375H5.59375C5.13672 0.9375 4.78125 1.31836 4.78125 1.75V5.40625H1.125C0.667969 5.40625 0.3125 5.78711 0.3125 6.21875V7.03125C0.3125 7.48828 0.667969 7.84375 1.125 7.84375H4.78125V11.5C4.78125 11.957 5.13672 12.3125 5.59375 12.3125H6.40625C6.83789 12.3125 7.21875 11.957 7.21875 11.5V7.84375H10.875C11.3066 7.84375 11.6875 7.48828 11.6875 7.03125V6.21875C11.6875 5.78711 11.3066 5.40625 10.875 5.40625Z" fill="#4392BB"/>
</svg>
