<svg width="10" height="11" viewBox="0 0 10 11" fill="#4392BB" xmlns="http://www.w3.org/2000/svg">
<path d="M6.80469 5.75L9.53906 3.01562C9.89453 2.6875 9.89453 2.14062 9.53906 1.8125L8.9375 1.21094C8.60938 0.855469 8.0625 0.855469 7.73438 1.21094L5 3.94531L2.23828 1.21094C1.91016 0.855469 1.36328 0.855469 1.03516 1.21094L0.433594 1.8125C0.078125 2.14062 0.078125 2.6875 0.433594 3.01562L3.16797 5.75L0.433594 8.51172C0.078125 8.83984 0.078125 9.38672 0.433594 9.71484L1.03516 10.3164C1.36328 10.6719 1.91016 10.6719 2.23828 10.3164L5 7.58203L7.73438 10.3164C8.0625 10.6719 8.60938 10.6719 8.9375 10.3164L9.53906 9.71484C9.89453 9.38672 9.89453 8.83984 9.53906 8.51172L6.80469 5.75Z" />
</svg>
