<svg width="14" height="11" viewBox="0 0 14 11" fill="none" xmlns="http://www.w3.org/2000/svg">
<path d="M13.7266 3.47266C13.0977 3.96484 12.3047 4.56641 9.51562 6.58984C8.96875 7 7.95703 7.90234 7 7.90234C6.01562 7.90234 5.03125 7 4.45703 6.58984C1.66797 4.56641 0.875 3.96484 0.246094 3.47266C0.136719 3.39062 0 3.47266 0 3.60938V9.1875C0 9.92578 0.574219 10.5 1.3125 10.5H12.6875C13.3984 10.5 14 9.92578 14 9.1875V3.60938C14 3.47266 13.8359 3.39062 13.7266 3.47266ZM7 7C7.62891 7.02734 8.53125 6.20703 8.99609 5.87891C12.6328 3.25391 12.9062 3.00781 13.7266 2.35156C13.8906 2.24219 14 2.05078 14 1.83203V1.3125C14 0.601562 13.3984 0 12.6875 0H1.3125C0.574219 0 0 0.601562 0 1.3125V1.83203C0 2.05078 0.0820312 2.24219 0.246094 2.35156C1.06641 3.00781 1.33984 3.25391 4.97656 5.87891C5.44141 6.20703 6.34375 7.02734 7 7Z" fill="#4392BB"/>
</svg>
