<svg width="24" height="24" viewBox="0 0 24 24" fill="none" xmlns="http://www.w3.org/2000/svg">
<path d="M0 3C0 1.34315 1.34315 0 3 0H21C22.6569 0 24 1.34315 24 3V21C24 22.6569 22.6569 24 21 24H3C1.34315 24 0 22.6569 0 21V3Z" fill="#4392BB"/>
<path d="M16.5 11.375H13.125V8C13.125 7.60156 12.7734 7.25 12.375 7.25H11.625C11.2031 7.25 10.875 7.60156 10.875 8V11.375H7.5C7.07812 11.375 6.75 11.7266 6.75 12.125V12.875C6.75 13.2969 7.07812 13.625 7.5 13.625H10.875V17C10.875 17.4219 11.2031 17.75 11.625 17.75H12.375C12.7734 17.75 13.125 17.4219 13.125 17V13.625H16.5C16.8984 13.625 17.25 13.2969 17.25 12.875V12.125C17.25 11.7266 16.8984 11.375 16.5 11.375Z" fill="white"/>
</svg>
