<svg width="48" height="48" viewBox="0 0 48 48" fill="none" xmlns="http://www.w3.org/2000/svg">
<path d="M0 16C0 7.16344 7.16344 0 16 0H32.3243C34.5335 0 36.3243 1.79086 36.3243 4V32.3243C36.3243 34.5335 34.5335 36.3243 32.3243 36.3243H4C1.79086 36.3243 0 34.5335 0 32.3243V16Z" fill="#F89797"/>
<path d="M48 32C48 40.8366 40.8366 48 32 48H15.6757C13.4665 48 11.6757 46.2091 11.6757 44V15.6757C11.6757 13.4665 13.4665 11.6757 15.6757 11.6757H44C46.2091 11.6757 48 13.4665 48 15.6757V32Z" fill="#3574B1"/>
</svg>
