<svg width="11" height="12" viewBox="0 0 11 12" fill="none" xmlns="http://www.w3.org/2000/svg">
<path d="M9.875 1.5H8.75V0.28125C8.75 0.140625 8.60938 0 8.46875 0H7.53125C7.36719 0 7.25 0.140625 7.25 0.28125V1.5H4.25V0.28125C4.25 0.140625 4.10938 0 3.96875 0H3.03125C2.86719 0 2.75 0.140625 2.75 0.28125V1.5H1.625C0.992188 1.5 0.5 2.01562 0.5 2.625V10.875C0.5 11.5078 0.992188 12 1.625 12H9.875C10.4844 12 11 11.5078 11 10.875V2.625C11 2.01562 10.4844 1.5 9.875 1.5ZM9.73438 10.875H1.76562C1.67188 10.875 1.625 10.8281 1.625 10.7344V3.75H9.875V10.7344C9.875 10.8281 9.80469 10.875 9.73438 10.875Z" fill="#4392BB"/>
</svg>
