<svg width="13" height="15" viewBox="0 0 13 15" fill="none" xmlns="http://www.w3.org/2000/svg">
<path d="M11.3125 6.375H10.6562V4.40625C10.6562 2.13672 8.76953 0.25 6.5 0.25C4.20312 0.25 2.34375 2.13672 2.34375 4.40625V6.375H1.6875C0.949219 6.375 0.375 6.97656 0.375 7.6875V12.9375C0.375 13.6758 0.949219 14.25 1.6875 14.25H11.3125C12.0234 14.25 12.625 13.6758 12.625 12.9375V7.6875C12.625 6.97656 12.0234 6.375 11.3125 6.375ZM8.46875 6.375H4.53125V4.40625C4.53125 3.33984 5.40625 2.4375 6.5 2.4375C7.56641 2.4375 8.46875 3.33984 8.46875 4.40625V6.375Z" fill="#4392BB"/>
</svg>
