<svg width="40" height="40" viewBox="0 0 40 40" fill="none" xmlns="http://www.w3.org/2000/svg">
<path d="M0 16C0 7.16345 7.16345 0 16 0H26.2703C28.4794 0 30.2703 1.79086 30.2703 4V26.2703C30.2703 28.4794 28.4794 30.2703 26.2703 30.2703H4C1.79086 30.2703 0 28.4794 0 26.2703V16Z" fill="#F89797"/>
<path d="M40 24C40 32.8366 32.8366 40 24 40H13.7297C11.5206 40 9.72973 38.2091 9.72973 36V13.7297C9.72973 11.5206 11.5206 9.72973 13.7297 9.72973H36C38.2091 9.72973 40 11.5206 40 13.7297V24Z" fill="#3574B1"/>
</svg>
