<svg width="14" height="13" viewBox="0 0 14 13" fill="none" xmlns="http://www.w3.org/2000/svg">
<path d="M13.5625 10.25H4.375V9.8125C4.375 9.59375 4.15625 9.375 3.9375 9.375H3.0625C2.81641 9.375 2.625 9.59375 2.625 9.8125V10.25H0.4375C0.191406 10.25 0 10.4688 0 10.6875V11.5625C0 11.8086 0.191406 12 0.4375 12H2.625V12.4375C2.625 12.6836 2.81641 12.875 3.0625 12.875H3.9375C4.15625 12.875 4.375 12.6836 4.375 12.4375V12H13.5625C13.7812 12 14 11.8086 14 11.5625V10.6875C14 10.4688 13.7812 10.25 13.5625 10.25ZM13.5625 5.875H11.375V5.4375C11.375 5.21875 11.1562 5 10.9375 5H10.0625C9.81641 5 9.625 5.21875 9.625 5.4375V5.875H0.4375C0.191406 5.875 0 6.09375 0 6.3125V7.1875C0 7.43359 0.191406 7.625 0.4375 7.625H9.625V8.0625C9.625 8.30859 9.81641 8.5 10.0625 8.5H10.9375C11.1562 8.5 11.375 8.30859 11.375 8.0625V7.625H13.5625C13.7812 7.625 14 7.43359 14 7.1875V6.3125C14 6.09375 13.7812 5.875 13.5625 5.875ZM13.5625 1.5H7.875V1.0625C7.875 0.84375 7.65625 0.625 7.4375 0.625H6.5625C6.31641 0.625 6.125 0.84375 6.125 1.0625V1.5H0.4375C0.191406 1.5 0 1.71875 0 1.9375V2.8125C0 3.05859 0.191406 3.25 0.4375 3.25H6.125V3.6875C6.125 3.93359 6.31641 4.125 6.5625 4.125H7.4375C7.65625 4.125 7.875 3.93359 7.875 3.6875V3.25H13.5625C13.7812 3.25 14 3.05859 14 2.8125V1.9375C14 1.71875 13.7812 1.5 13.5625 1.5Z" fill="#757575"/>
</svg>
