<svg width="18" height="15" viewBox="0 0 18 15" fill="none" xmlns="http://www.w3.org/2000/svg">
<path d="M7.25 9.9375H7.22266C7.22266 9.5 7.27734 9.71875 4.89844 4.98828C4.43359 4.03125 3.03906 4.03125 2.57422 4.98828C0.167969 9.74609 0.25 9.52734 0.25 9.9375C0.25 11.168 1.80859 12.125 3.75 12.125C5.66406 12.125 7.25 11.168 7.25 9.9375ZM3.75 5.5625L5.71875 9.5H1.78125L3.75 5.5625ZM17.7227 9.9375C17.7227 9.5 17.7773 9.71875 15.3984 4.98828C14.9336 4.03125 13.5391 4.03125 13.0742 4.98828C10.668 9.74609 10.75 9.52734 10.75 9.9375C10.75 11.168 12.3086 12.125 14.25 12.125C16.1641 12.125 17.75 11.168 17.75 9.9375H17.7227ZM12.2812 9.5L14.25 5.5625L16.2188 9.5H12.2812ZM14.6875 13H9.875V4.96094C10.5039 4.66016 10.9961 4.08594 11.1328 3.375H14.6875C14.9062 3.375 15.125 3.18359 15.125 2.9375V2.0625C15.125 1.84375 14.9062 1.625 14.6875 1.625H10.7227C10.3398 1.10547 9.71094 0.75 9 0.75C8.26172 0.75 7.63281 1.10547 7.25 1.625H3.3125C3.06641 1.625 2.875 1.84375 2.875 2.0625V2.9375C2.875 3.18359 3.06641 3.375 3.3125 3.375H6.83984C6.97656 4.08594 7.46875 4.66016 8.125 4.96094V13H3.3125C3.06641 13 2.875 13.2188 2.875 13.4375V14.3125C2.875 14.5586 3.06641 14.75 3.3125 14.75H14.6875C14.9062 14.75 15.125 14.5586 15.125 14.3125V13.4375C15.125 13.2188 14.9062 13 14.6875 13Z" fill="#757575"/>
</svg>
