<svg width="18" height="15" viewBox="0 0 18 15" fill="none" xmlns="http://www.w3.org/2000/svg">
<path d="M10.75 9.5H7.25C6.75781 9.5 6.375 9.91016 6.375 10.375V13.875C6.375 14.3672 6.75781 14.75 7.25 14.75H10.75C11.2148 14.75 11.625 14.3672 11.625 13.875V10.375C11.625 9.91016 11.2148 9.5 10.75 9.5ZM5.5 1.625C5.5 1.16016 5.08984 0.75 4.625 0.75H1.125C0.632812 0.75 0.25 1.16016 0.25 1.625V5.125C0.25 5.61719 0.632812 6 1.125 6H3.72266L5.71875 9.52734C6.01953 8.98047 6.59375 8.625 7.25 8.625L5.5 5.5625V4.25H11.625V2.5H5.5V1.625ZM16.875 0.75H13.375C12.8828 0.75 12.5 1.16016 12.5 1.625V5.125C12.5 5.61719 12.8828 6 13.375 6H16.875C17.3398 6 17.75 5.61719 17.75 5.125V1.625C17.75 1.16016 17.3398 0.75 16.875 0.75Z" fill="#757575"/>
</svg>
