<svg width="14" height="14" viewBox="0 0 14 14" fill="none"
  xmlns="http://www.w3.org/2000/svg">
  <path class="bg" d="M0 1C0 0.447716 0.447715 0 1 0H13C13.5523 0 14 0.447715 14 1V13C14 13.5523 13.5523 14 13 14H1C0.447716 14 0 13.5523 0 13V1Z"/>
  <path d="M9.91797 9.44141L8.74609 8.26953C8.6875 8.22266 8.61719 8.1875 8.54688 8.1875H8.35938C8.67578 7.77734 8.875 7.26172 8.875 6.6875C8.875 5.35156 7.77344 4.25 6.4375 4.25C5.08984 4.25 4 5.35156 4 6.6875C4 8.03516 5.08984 9.125 6.4375 9.125C7 9.125 7.51562 8.9375 7.9375 8.60938V8.80859C7.9375 8.87891 7.96094 8.94922 8.01953 9.00781L9.17969 10.168C9.29688 10.2852 9.47266 10.2852 9.57812 10.168L9.90625 9.83984C10.0234 9.73438 10.0234 9.55859 9.91797 9.44141ZM6.4375 8.1875C5.60547 8.1875 4.9375 7.51953 4.9375 6.6875C4.9375 5.86719 5.60547 5.1875 6.4375 5.1875C7.25781 5.1875 7.9375 5.86719 7.9375 6.6875C7.9375 7.51953 7.25781 8.1875 6.4375 8.1875Z" fill="white"/>
</svg>
