<svg width="28" height="28" viewBox="0 0 28 28" fill="none" xmlns="http://www.w3.org/2000/svg">
<rect width="28" height="28" rx="3" fill="#4392BB" class="icon-edit" />
<path d="M16.8945 9.75781C16.793 9.65625 16.6406 9.65625 16.5391 9.75781L11.0039 15.293L10.75 17.6543C10.6992 17.959 10.9785 18.2383 11.2832 18.1875L13.6445 17.9336L19.1797 12.3984C19.2812 12.2969 19.2812 12.1445 19.1797 12.043L16.8945 9.75781ZM21.0078 9.17383L19.7637 7.92969C19.3828 7.54883 18.748 7.54883 18.3672 7.92969L17.4785 8.81836C17.377 8.91992 17.377 9.07227 17.4785 9.17383L19.7637 11.459C19.8652 11.5605 20.0176 11.5605 20.1191 11.459L21.0078 10.5703C21.3887 10.1895 21.3887 9.55469 21.0078 9.17383ZM16.4375 16.4355V19H8.3125V10.875H14.127C14.2285 10.875 14.3047 10.8496 14.3555 10.7988L15.3711 9.7832C15.5488 9.58008 15.4219 9.25 15.1426 9.25H7.90625C7.2207 9.25 6.6875 9.80859 6.6875 10.4688V19.4062C6.6875 20.0918 7.2207 20.625 7.90625 20.625H16.8438C17.5039 20.625 18.0625 20.0918 18.0625 19.4062V15.4199C18.0625 15.1406 17.7324 15.0137 17.5293 15.1914L16.5137 16.207C16.4629 16.2578 16.4375 16.334 16.4375 16.4355Z" fill="white"/>
</svg>
