<svg width="10" height="9" viewBox="0 0 10 9" fill="none" xmlns="http://www.w3.org/2000/svg">
<path d="M6.54688 4.5L8.89062 2.15625C9.19531 1.875 9.19531 1.40625 8.89062 1.125L8.375 0.609375C8.09375 0.304688 7.625 0.304688 7.34375 0.609375L5 2.95312L2.63281 0.609375C2.35156 0.304688 1.88281 0.304688 1.60156 0.609375L1.08594 1.125C0.78125 1.40625 0.78125 1.875 1.08594 2.15625L3.42969 4.5L1.08594 6.86719C0.78125 7.14844 0.78125 7.61719 1.08594 7.89844L1.60156 8.41406C1.88281 8.71875 2.35156 8.71875 2.63281 8.41406L5 6.07031L7.34375 8.41406C7.625 8.71875 8.09375 8.71875 8.375 8.41406L8.89062 7.89844C9.19531 7.61719 9.19531 7.14844 8.89062 6.86719L6.54688 4.5Z" fill="#EB5757"/>
</svg>
