<svg width="16" height="17" viewBox="0 0 16 17" fill="none" xmlns="http://www.w3.org/2000/svg">
<path d="M15.75 8.5C15.75 4.25 12.25 0.75 8 0.75C3.71875 0.75 0.25 4.25 0.25 8.5C0.25 12.7812 3.71875 16.25 8 16.25C12.25 16.25 15.75 12.7812 15.75 8.5ZM7.09375 12.625C6.90625 12.8125 6.5625 12.8125 6.375 12.625L3.125 9.375C2.9375 9.1875 2.9375 8.84375 3.125 8.65625L3.84375 7.96875C4.03125 7.75 4.34375 7.75 4.53125 7.96875L6.75 10.1562L11.4375 5.46875C11.625 5.25 11.9375 5.25 12.125 5.46875L12.8438 6.15625C13.0312 6.34375 13.0312 6.6875 12.8438 6.875L7.09375 12.625Z" fill="white"/>
</svg>
