<svg width="28" height="28" viewBox="0 0 28 28" fill="none" xmlns="http://www.w3.org/2000/svg">
<rect width="28" height="28" rx="3" fill="#A6D1E7"/>
<path d="M16.4375 19H12.1719C11.3848 19 10.75 18.3652 10.75 17.5781V10.0625H8.92188C8.56641 10.0625 8.3125 10.3418 8.3125 10.6719V20.0156C8.3125 20.3711 8.56641 20.625 8.92188 20.625H15.8281C16.1582 20.625 16.4375 20.3711 16.4375 20.0156V19ZM16.4375 10.2656V7.625H12.1719C11.8164 7.625 11.5625 7.9043 11.5625 8.23438V17.5781C11.5625 17.9336 11.8164 18.1875 12.1719 18.1875H19.0781C19.4082 18.1875 19.6875 17.9336 19.6875 17.5781V10.875H17.0469C16.6914 10.875 16.4375 10.6211 16.4375 10.2656ZM19.4844 9.47852L17.834 7.82812C17.707 7.70117 17.5547 7.625 17.4023 7.625H17.25V10.0625H19.6875V9.91016C19.6875 9.75781 19.6113 9.60547 19.4844 9.47852Z" fill="white"/>
</svg>
