<svg width="12" height="13" viewBox="0 0 12 13" fill="none" xmlns="http://www.w3.org/2000/svg">
<path d="M10.875 1.25H8.0625L7.82812 0.828125C7.73438 0.640625 7.54688 0.5 7.33594 0.5H4.64062C4.42969 0.5 4.24219 0.640625 4.14844 0.828125L3.9375 1.25H1.125C0.914062 1.25 0.75 1.4375 0.75 1.625V2.375C0.75 2.58594 0.914062 2.75 1.125 2.75H10.875C11.0625 2.75 11.25 2.58594 11.25 2.375V1.625C11.25 1.4375 11.0625 1.25 10.875 1.25ZM1.99219 11.4453C2.01562 12.0547 2.50781 12.5 3.11719 12.5H8.85938C9.46875 12.5 9.96094 12.0547 9.98438 11.4453L10.5 3.5H1.5L1.99219 11.4453Z" fill="white"/>
</svg>
