<svg width="14" height="15" viewBox="0 0 14 15" fill="none" xmlns="http://www.w3.org/2000/svg">
<path d="M11.375 9.5H8.75C8.25781 9.5 7.875 9.11719 7.875 8.625C7.875 8.16016 8.25781 7.75 8.75 7.75H11.375C11.375 7.75 14 4.82422 14 3.375C14 1.92578 12.8242 0.75 11.375 0.75C9.92578 0.75 8.75 1.92578 8.75 3.375C8.75 4.08594 9.35156 5.125 9.98047 6H8.75C7.30078 6 6.125 7.20312 6.125 8.625C6.125 10.0742 7.30078 11.25 8.75 11.25H11.375C11.8398 11.25 12.25 11.6602 12.25 12.125C12.25 12.6172 11.8398 13 11.375 13H5.05859C4.62109 13.6836 4.12891 14.3125 3.77344 14.75H11.375C12.7969 14.75 14 13.5742 14 12.125C14 10.7031 12.7969 9.5 11.375 9.5ZM11.375 2.5C11.8398 2.5 12.25 2.91016 12.25 3.375C12.25 3.86719 11.8398 4.25 11.375 4.25C10.8828 4.25 10.5 3.86719 10.5 3.375C10.5 2.91016 10.8828 2.5 11.375 2.5ZM2.625 7.75C1.17578 7.75 0 8.92578 0 10.375C0 11.8242 2.625 14.75 2.625 14.75C2.625 14.75 5.25 11.8242 5.25 10.375C5.25 8.92578 4.07422 7.75 2.625 7.75ZM2.625 11.25C2.13281 11.25 1.75 10.8672 1.75 10.375C1.75 9.91016 2.13281 9.5 2.625 9.5C3.08984 9.5 3.5 9.91016 3.5 10.375C3.5 10.8672 3.08984 11.25 2.625 11.25Z" fill="#757575"/>
</svg>
