<svg width="15" height="14" viewBox="0 0 15 14" fill="none" xmlns="http://www.w3.org/2000/svg">
<path d="M13.7812 9.59375L11.5938 7.40625C11.1836 6.99609 10.5 7.26953 10.5 7.87109V8.9375H9.625L8.17578 7.40625L6.69922 8.96484L8.64062 11.043C8.69531 11.0977 8.77734 11.125 8.88672 11.125H10.5V12.2188C10.5 12.8203 11.1836 13.0938 11.5938 12.6836L13.7812 10.4961C14.0547 10.25 14.0547 9.83984 13.7812 9.59375ZM0.328125 4.5625H2.625L4.04688 6.12109L5.52344 4.5625L3.58203 2.48438C3.52734 2.42969 3.44531 2.375 3.33594 2.375H0.328125C0.136719 2.375 0 2.53906 0 2.70312V4.23438C0 4.42578 0.136719 4.5625 0.328125 4.5625ZM10.5 4.5625V5.65625C10.5 6.25781 11.1836 6.53125 11.5938 6.12109L13.7812 3.93359C14.0547 3.6875 14.0547 3.27734 13.7812 3.03125L11.5938 0.84375C11.1836 0.433594 10.5 0.707031 10.5 1.30859V2.375H8.88672C8.77734 2.375 8.69531 2.42969 8.64062 2.48438L2.625 8.9375H0.328125C0.136719 8.9375 0 9.10156 0 9.26562V10.7969C0 10.9883 0.136719 11.125 0.328125 11.125H3.33594C3.44531 11.125 3.52734 11.0977 3.58203 11.043L9.625 4.5625H10.5Z" fill="#757575"/>
</svg>
