<svg width="14" height="13" viewBox="0 0 14 13" class="icon-delete" fill="none" xmlns="http://www.w3.org/2000/svg">
<path d="M9.67188 2.46875C9.57812 2.375 9.4375 2.375 9.34375 2.46875L4.23438 7.57812L4 9.75781C3.95312 10.0391 4.21094 10.2969 4.49219 10.25L6.67188 10.0156L11.7812 4.90625C11.875 4.8125 11.875 4.67188 11.7812 4.57812L9.67188 2.46875ZM13.4688 1.92969L12.3203 0.78125C11.9688 0.429688 11.3828 0.429688 11.0312 0.78125L10.2109 1.60156C10.1172 1.69531 10.1172 1.83594 10.2109 1.92969L12.3203 4.03906C12.4141 4.13281 12.5547 4.13281 12.6484 4.03906L13.4688 3.21875C13.8203 2.86719 13.8203 2.28125 13.4688 1.92969ZM9.25 8.63281V11H1.75V3.5H7.11719C7.21094 3.5 7.28125 3.47656 7.32812 3.42969L8.26562 2.49219C8.42969 2.30469 8.3125 2 8.05469 2H1.375C0.742188 2 0.25 2.51562 0.25 3.125V11.375C0.25 12.0078 0.742188 12.5 1.375 12.5H9.625C10.2344 12.5 10.75 12.0078 10.75 11.375V7.69531C10.75 7.4375 10.4453 7.32031 10.2578 7.48438L9.32031 8.42188C9.27344 8.46875 9.25 8.53906 9.25 8.63281Z" fill="white"/>
</svg>
