<svg width="19" height="17" viewBox="0 0 19 17" fill="none" xmlns="http://www.w3.org/2000/svg">
<path d="M12.5625 3.625C12.4375 3.5 12.25 3.5 12.125 3.625L5.3125 10.4375L5 13.3438C4.9375 13.7188 5.28125 14.0625 5.65625 14L8.5625 13.6875L15.375 6.875C15.5 6.75 15.5 6.5625 15.375 6.4375L12.5625 3.625ZM17.625 2.90625L16.0938 1.375C15.625 0.90625 14.8438 0.90625 14.375 1.375L13.2812 2.46875C13.1562 2.59375 13.1562 2.78125 13.2812 2.90625L16.0938 5.71875C16.2188 5.84375 16.4062 5.84375 16.5312 5.71875L17.625 4.625C18.0938 4.15625 18.0938 3.375 17.625 2.90625ZM12 11.8438V15H2V5H9.15625C9.28125 5 9.375 4.96875 9.4375 4.90625L10.6875 3.65625C10.9062 3.40625 10.75 3 10.4062 3H1.5C0.65625 3 0 3.6875 0 4.5V15.5C0 16.3438 0.65625 17 1.5 17H12.5C13.3125 17 14 16.3438 14 15.5V10.5938C14 10.25 13.5938 10.0938 13.3438 10.3125L12.0938 11.5625C12.0312 11.625 12 11.7188 12 11.8438Z" fill="#4392BB"/>
</svg>
