<svg width="16" height="17" viewBox="0 0 16 17" fill="none" xmlns="http://www.w3.org/2000/svg">
<path d="M15.75 8.5C15.75 4.25 12.25 0.75 8 0.75C3.71875 0.75 0.25 4.25 0.25 8.5C0.25 12.7812 3.71875 16.25 8 16.25C12.25 16.25 15.75 12.7812 15.75 8.5ZM8 10.0625C8.78125 10.0625 9.4375 10.7188 9.4375 11.5C9.4375 12.3125 8.78125 12.9375 8 12.9375C7.1875 12.9375 6.5625 12.3125 6.5625 11.5C6.5625 10.7188 7.1875 10.0625 8 10.0625ZM6.625 4.90625C6.59375 4.6875 6.78125 4.5 7 4.5H8.96875C9.1875 4.5 9.375 4.6875 9.34375 4.90625L9.125 9.15625C9.09375 9.375 8.9375 9.5 8.75 9.5H7.21875C7.03125 9.5 6.875 9.375 6.84375 9.15625L6.625 4.90625Z" fill="white"/>
</svg>
