<svg width="20" height="21" viewBox="0 0 20 21" fill="none" xmlns="http://www.w3.org/2000/svg">
<path d="M19.6875 10.5C19.6875 5.1875 15.3125 0.8125 10 0.8125C4.64844 0.8125 0.3125 5.1875 0.3125 10.5C0.3125 15.8516 4.64844 20.1875 10 20.1875C15.3125 20.1875 19.6875 15.8516 19.6875 10.5ZM10 12.4531C10.9766 12.4531 11.7969 13.2734 11.7969 14.25C11.7969 15.2656 10.9766 16.0469 10 16.0469C8.98438 16.0469 8.20312 15.2656 8.20312 14.25C8.20312 13.2734 8.98438 12.4531 10 12.4531ZM8.28125 6.00781C8.24219 5.73438 8.47656 5.5 8.75 5.5H11.2109C11.4844 5.5 11.7188 5.73438 11.6797 6.00781L11.4062 11.3203C11.3672 11.5938 11.1719 11.75 10.9375 11.75H9.02344C8.78906 11.75 8.59375 11.5938 8.55469 11.3203L8.28125 6.00781Z" fill="#EB5757"/>
</svg>
