<svg width="14" height="14" viewBox="0 0 14 14" fill="none" xmlns="http://www.w3.org/2000/svg">
<path d="M5.98438 0.625C5.62891 0.625 5.375 0.904297 5.375 1.23438V5.5H3.14062C2.68359 5.5 2.45508 6.05859 2.78516 6.38867L6.64453 10.248C6.82227 10.4258 7.15234 10.4258 7.33008 10.248L11.1895 6.38867C11.5195 6.05859 11.291 5.5 10.834 5.5H8.625V1.23438C8.625 0.904297 8.3457 0.625 8.01562 0.625H5.98438ZM13.5 10.1719C13.5 9.8418 13.2207 9.5625 12.8906 9.5625H9.1582L7.91406 10.8066C7.40625 11.3398 6.56836 11.3398 6.06055 10.8066L4.81641 9.5625H1.10938C0.753906 9.5625 0.5 9.8418 0.5 10.1719V13.0156C0.5 13.3711 0.753906 13.625 1.10938 13.625H12.8906C13.2207 13.625 13.5 13.3711 13.5 13.0156V10.1719ZM10.3516 12.4062C10.3516 12.6855 10.123 12.9141 9.84375 12.9141C9.56445 12.9141 9.33594 12.6855 9.33594 12.4062C9.33594 12.127 9.56445 11.8984 9.84375 11.8984C10.123 11.8984 10.3516 12.127 10.3516 12.4062ZM11.9766 12.4062C11.9766 12.6855 11.748 12.9141 11.4688 12.9141C11.1895 12.9141 10.9609 12.6855 10.9609 12.4062C10.9609 12.127 11.1895 11.8984 11.4688 11.8984C11.748 11.8984 11.9766 12.127 11.9766 12.4062Z" fill="white"/>
</svg>
