<svg width="14" height="13" viewBox="0 0 14 13" fill="none" xmlns="http://www.w3.org/2000/svg">
<path d="M4.07422 1.28125C4.07422 0.925781 3.77344 0.625 3.41797 0.625H0.65625C0.273438 0.625 0 0.925781 0 1.28125V3.46875C0 3.85156 0.273438 4.125 0.65625 4.125H3.41797C3.77344 4.125 4.07422 3.85156 4.07422 3.46875V1.28125ZM9.02344 7.84375V5.65625C9.02344 5.30078 8.72266 5 8.36719 5H5.60547C5.25 5 4.94922 5.30078 4.94922 5.65625V7.84375C4.94922 8.22656 5.25 8.5 5.60547 8.5H8.36719C8.72266 8.5 9.02344 8.22656 9.02344 7.84375ZM9.89844 1.28125V3.46875C9.89844 3.85156 10.1992 4.125 10.5547 4.125H13.3438C13.6992 4.125 14 3.85156 14 3.46875V1.28125C14 0.925781 13.6992 0.625 13.3438 0.625H10.5547C10.1992 0.625 9.89844 0.925781 9.89844 1.28125ZM9.02344 3.46875V1.28125C9.02344 0.925781 8.72266 0.625 8.36719 0.625H5.60547C5.25 0.625 4.94922 0.925781 4.94922 1.28125V3.46875C4.94922 3.85156 5.25 4.125 5.60547 4.125H8.36719C8.72266 4.125 9.02344 3.85156 9.02344 3.46875ZM3.41797 5H0.65625C0.273438 5 0 5.30078 0 5.65625V7.84375C0 8.22656 0.273438 8.5 0.65625 8.5H3.41797C3.77344 8.5 4.07422 8.22656 4.07422 7.84375V5.65625C4.07422 5.30078 3.77344 5 3.41797 5ZM0 10.0312V12.2188C0 12.6016 0.273438 12.875 0.65625 12.875H3.41797C3.77344 12.875 4.07422 12.6016 4.07422 12.2188V10.0312C4.07422 9.67578 3.77344 9.375 3.41797 9.375H0.65625C0.273438 9.375 0 9.67578 0 10.0312ZM10.5547 8.5H13.3438C13.6992 8.5 14 8.22656 14 7.84375V5.65625C14 5.30078 13.6992 5 13.3438 5H10.5547C10.1992 5 9.89844 5.30078 9.89844 5.65625V7.84375C9.89844 8.22656 10.1992 8.5 10.5547 8.5ZM10.5547 12.875H13.3438C13.6992 12.875 14 12.6016 14 12.2188V10.0312C14 9.67578 13.6992 9.375 13.3438 9.375H10.5547C10.1992 9.375 9.89844 9.67578 9.89844 10.0312V12.2188C9.89844 12.6016 10.1992 12.875 10.5547 12.875ZM4.94922 10.0312V12.2188C4.94922 12.6016 5.25 12.875 5.60547 12.875H8.36719C8.72266 12.875 9.02344 12.6016 9.02344 12.2188V10.0312C9.02344 9.67578 8.72266 9.375 8.36719 9.375H5.60547C5.25 9.375 4.94922 9.67578 4.94922 10.0312Z" fill="#757575"/>
</svg>
