<svg width="14" height="15" viewBox="0 0 14 15" fill="none" xmlns="http://www.w3.org/2000/svg">
<path d="M12.7969 5.125C12.9609 5.125 13.125 4.98828 13.125 4.79688V3.8125C13.125 3.10156 12.5234 2.5 11.8125 2.5H10.5V1.07812C10.5 0.914062 10.3359 0.75 10.1719 0.75H9.07812C8.88672 0.75 8.75 0.914062 8.75 1.07812V2.5H5.25V1.07812C5.25 0.914062 5.08594 0.75 4.92188 0.75H3.82812C3.63672 0.75 3.5 0.914062 3.5 1.07812V2.5H2.1875C1.44922 2.5 0.875 3.10156 0.875 3.8125V4.79688C0.875 4.98828 1.01172 5.125 1.20312 5.125H12.7969ZM1.20312 6C1.01172 6 0.875 6.16406 0.875 6.32812V13.4375C0.875 14.1758 1.44922 14.75 2.1875 14.75H11.8125C12.5234 14.75 13.125 14.1758 13.125 13.4375V6.32812C13.125 6.16406 12.9609 6 12.7969 6H1.20312ZM8.23047 10.375L9.54297 11.7148C9.67969 11.8242 9.67969 12.043 9.54297 12.1797L8.77734 12.9453C8.64062 13.082 8.42188 13.082 8.3125 12.9453L7 11.6328L5.66016 12.9453C5.55078 13.082 5.33203 13.082 5.19531 12.9453L4.42969 12.1797C4.29297 12.043 4.29297 11.8242 4.42969 11.7148L5.74219 10.375L4.42969 9.0625C4.29297 8.95312 4.29297 8.73438 4.42969 8.59766L5.19531 7.83203C5.33203 7.69531 5.55078 7.69531 5.66016 7.83203L7 9.14453L8.3125 7.83203C8.42188 7.69531 8.64062 7.69531 8.77734 7.83203L9.54297 8.59766C9.67969 8.73438 9.67969 8.95312 9.54297 9.0625L8.23047 10.375Z" fill="#757575"/>
</svg>
