<svg width="24" height="24" viewBox="0 0 24 24" fill="none" xmlns="http://www.w3.org/2000/svg">
<rect class="icon-cancel-white" width="24" height="24" rx="3" fill="#EB5757"/>
<path d="M13.5469 12.5L15.8906 10.1562C16.1953 9.875 16.1953 9.40625 15.8906 9.125L15.375 8.60938C15.0938 8.30469 14.625 8.30469 14.3438 8.60938L12 10.9531L9.63281 8.60938C9.35156 8.30469 8.88281 8.30469 8.60156 8.60938L8.08594 9.125C7.78125 9.40625 7.78125 9.875 8.08594 10.1562L10.4297 12.5L8.08594 14.8672C7.78125 15.1484 7.78125 15.6172 8.08594 15.8984L8.60156 16.4141C8.88281 16.7188 9.35156 16.7188 9.63281 16.4141L12 14.0703L14.3438 16.4141C14.625 16.7188 15.0938 16.7188 15.375 16.4141L15.8906 15.8984C16.1953 15.6172 16.1953 15.1484 15.8906 14.8672L13.5469 12.5Z" fill="white"/>
</svg>
