<svg width="12" height="13" viewBox="0 0 12 13" fill="none" xmlns="http://www.w3.org/2000/svg">
<path d="M8.25 11H4.3125C3.58594 11 3 10.4141 3 9.6875V2.75H1.3125C0.984375 2.75 0.75 3.00781 0.75 3.3125V11.9375C0.75 12.2656 0.984375 12.5 1.3125 12.5H7.6875C7.99219 12.5 8.25 12.2656 8.25 11.9375V11ZM8.25 2.9375V0.5H4.3125C3.98438 0.5 3.75 0.757812 3.75 1.0625V9.6875C3.75 10.0156 3.98438 10.25 4.3125 10.25H10.6875C10.9922 10.25 11.25 10.0156 11.25 9.6875V3.5H8.8125C8.48438 3.5 8.25 3.26562 8.25 2.9375ZM11.0625 2.21094L9.53906 0.6875C9.42188 0.570312 9.28125 0.5 9.14062 0.5H9V2.75H11.25V2.60938C11.25 2.46875 11.1797 2.32812 11.0625 2.21094Z" fill="white"/>
</svg>
