<svg width="24" height="24" viewBox="0 0 24 24" fill="none" xmlns="http://www.w3.org/2000/svg">
<path d="M0 3C0 1.34315 1.34315 0 3 0H21C22.6569 0 24 1.34315 24 3V21C24 22.6569 22.6569 24 21 24H3C1.34315 24 0 22.6569 0 21V3Z" class="icon-delete" fill="#EB5757"/>
<path d="M16.875 7.25H14.0625L13.8281 6.82812C13.7344 6.64062 13.5469 6.5 13.3359 6.5H10.6406C10.4297 6.5 10.2422 6.64062 10.1484 6.82812L9.9375 7.25H7.125C6.91406 7.25 6.75 7.4375 6.75 7.625V8.375C6.75 8.58594 6.91406 8.75 7.125 8.75H16.875C17.0625 8.75 17.25 8.58594 17.25 8.375V7.625C17.25 7.4375 17.0625 7.25 16.875 7.25ZM7.99219 17.4453C8.01562 18.0547 8.50781 18.5 9.11719 18.5H14.8594C15.4688 18.5 15.9609 18.0547 15.9844 17.4453L16.5 9.5H7.5L7.99219 17.4453Z" fill="white"/>
</svg>
