<svg width="12" height="15" viewBox="0 0 12 15" fill="none" xmlns="http://www.w3.org/2000/svg">
<path d="M10.5391 0.859375L9.5 2.0625L7.99609 0.859375C7.91406 0.804688 7.83203 0.75 7.75 0.75C7.64062 0.75 7.55859 0.804688 7.47656 0.859375L6 2.0625L4.49609 0.859375C4.41406 0.804688 4.33203 0.75 4.25 0.75C4.14062 0.75 4.05859 0.804688 3.97656 0.859375L2.5 2.0625L1.43359 0.859375C1.16016 0.640625 0.75 0.832031 0.75 1.1875V14.3125C0.75 14.6953 1.16016 14.8867 1.43359 14.668L2.5 13.4375L3.97656 14.668C4.05859 14.7227 4.14062 14.7773 4.22266 14.7773C4.33203 14.7773 4.41406 14.7227 4.49609 14.668L6 13.4375L7.47656 14.668C7.55859 14.7227 7.64062 14.7773 7.72266 14.7773C7.83203 14.7773 7.91406 14.7227 7.99609 14.668L9.5 13.4375L10.5391 14.668C10.8125 14.8867 11.25 14.6953 11.25 14.3125V1.1875C11.25 0.832031 10.8398 0.640625 10.5391 0.859375ZM9.5 10.5938C9.5 10.7305 9.39062 10.8125 9.28125 10.8125H2.71875C2.58203 10.8125 2.5 10.7305 2.5 10.5938V10.1562C2.5 10.0469 2.58203 9.9375 2.71875 9.9375H9.28125C9.39062 9.9375 9.5 10.0469 9.5 10.1562V10.5938ZM9.5 7.96875C9.5 8.10547 9.39062 8.1875 9.28125 8.1875H2.71875C2.58203 8.1875 2.5 8.10547 2.5 7.96875V7.53125C2.5 7.42188 2.58203 7.3125 2.71875 7.3125H9.28125C9.39062 7.3125 9.5 7.42188 9.5 7.53125V7.96875ZM9.5 5.34375C9.5 5.48047 9.39062 5.5625 9.28125 5.5625H2.71875C2.58203 5.5625 2.5 5.48047 2.5 5.34375V4.90625C2.5 4.79688 2.58203 4.6875 2.71875 4.6875H9.28125C9.39062 4.6875 9.5 4.79688 9.5 4.90625V5.34375Z" fill="#757575"/>
</svg>
