<svg width="14" height="15" viewBox="0 0 14 15" fill="none" xmlns="http://www.w3.org/2000/svg">
<path d="M0 11.8516V13C0 13.9844 2.35156 14.75 5.25 14.75C8.14844 14.75 10.5 13.9844 10.5 13V11.8516C9.35156 12.6445 7.30078 13 5.25 13C3.17188 13 1.12109 12.6445 0 11.8516ZM8.75 4.25C11.6484 4.25 14 3.48438 14 2.5C14 1.54297 11.6484 0.75 8.75 0.75C5.85156 0.75 3.5 1.54297 3.5 2.5C3.5 3.48438 5.85156 4.25 8.75 4.25ZM0 8.98047V10.375C0 11.3594 2.35156 12.125 5.25 12.125C8.14844 12.125 10.5 11.3594 10.5 10.375V8.98047C9.35156 9.91016 7.30078 10.375 5.25 10.375C3.17188 10.375 1.12109 9.91016 0 8.98047ZM11.375 9.28125C12.9336 8.98047 14 8.40625 14 7.75V6.60156C13.3438 7.03906 12.4141 7.33984 11.375 7.53125V9.28125ZM5.25 5.125C2.35156 5.125 0 6.10938 0 7.3125C0 8.54297 2.35156 9.5 5.25 9.5C8.14844 9.5 10.5 8.54297 10.5 7.3125C10.5 6.10938 8.14844 5.125 5.25 5.125ZM11.2383 6.68359C12.8789 6.38281 14 5.80859 14 5.125V3.97656C13.0156 4.66016 11.3477 5.01562 9.59766 5.125C10.3906 5.50781 10.9922 6.02734 11.2383 6.68359Z" fill="#757575"/>
</svg>
