<svg width="24" height="24" viewBox="0 0 24 24" fill="none" xmlns="http://www.w3.org/2000/svg">
<path d="M12 0.375C5.57812 0.375 0.375 5.625 0.375 12C0.375 18.4219 5.57812 23.625 12 23.625C18.375 23.625 23.625 18.4219 23.625 12C23.625 5.625 18.375 0.375 12 0.375ZM12 2.625C17.1562 2.625 21.375 6.84375 21.375 12C21.375 17.2031 17.1562 21.375 12 21.375C6.79688 21.375 2.625 17.2031 2.625 12C2.625 6.84375 6.79688 2.625 12 2.625ZM18.5625 8.76562L17.4844 7.6875C17.2969 7.45312 16.9219 7.45312 16.6875 7.6875L10.0781 14.25L7.26562 11.4375C7.03125 11.2031 6.70312 11.2031 6.46875 11.4375L5.39062 12.4688C5.20312 12.7031 5.20312 13.0781 5.39062 13.2656L9.65625 17.5781C9.89062 17.8125 10.2188 17.8125 10.4531 17.5781L18.5625 9.5625C18.75 9.32812 18.75 8.95312 18.5625 8.76562Z" fill="#27AE60"/>
</svg>
