<svg width="15" height="14" viewBox="0 0 15 14" fill="none" xmlns="http://www.w3.org/2000/svg">
<path d="M13.8223 5.06836L12.8066 4.07812C12.5781 3.82422 12.1719 3.82422 11.9434 4.07812L5.875 10.1465L3.03125 7.32812C2.80273 7.07422 2.42188 7.07422 2.16797 7.32812L1.17773 8.31836C0.923828 8.57227 0.923828 8.95312 1.17773 9.18164L5.44336 13.4473C5.67188 13.7012 6.05273 13.7012 6.28125 13.4473L13.7969 5.93164C14.0508 5.70312 14.0508 5.32227 13.8223 5.06836ZM5.57031 7.75977C5.72266 7.9375 6.00195 7.9375 6.1543 7.75977L11.4355 2.47852C11.5879 2.32617 11.5879 2.07227 11.4355 1.89453L10.293 0.751953C10.1152 0.599609 9.86133 0.599609 9.70898 0.751953L5.875 4.61133L4.45312 3.18945C4.30078 3.03711 4.04688 3.03711 3.89453 3.18945L2.72656 4.33203C2.57422 4.50977 2.57422 4.76367 2.72656 4.91602L5.57031 7.75977Z" fill="white"/>
</svg>
