<svg width="18" height="13" viewBox="0 0 18 13" fill="none" xmlns="http://www.w3.org/2000/svg">
<path d="M11.8711 6.75C11.4062 6.75 10.9688 6.50391 10.75 6.12109L9 3.19531L7.22266 6.12109C7.00391 6.53125 6.56641 6.77734 6.10156 6.77734C5.96484 6.77734 5.85547 6.75 5.74609 6.72266L2 5.62891V10.4961C2 10.9062 2.27344 11.2617 2.65625 11.3438L8.5625 12.8477C8.83594 12.9023 9.13672 12.9023 9.41016 12.8477L15.3164 11.3438C15.7266 11.2617 16 10.9062 16 10.4961V5.62891L12.2539 6.72266C12.1172 6.75 12.0078 6.75 11.8711 6.75ZM17.6953 3.6875L16.2734 0.871094C16.1914 0.707031 16.0273 0.625 15.8359 0.652344L9 1.5L11.4883 5.68359C11.5977 5.84766 11.8164 5.92969 12.0078 5.875L17.4219 4.31641C17.6953 4.23438 17.8047 3.93359 17.6953 3.6875ZM1.69922 0.871094L0.277344 3.6875C0.167969 3.93359 0.304688 4.23438 0.550781 4.31641L5.96484 5.875C6.15625 5.92969 6.375 5.84766 6.48438 5.65625L9 1.5L2.13672 0.652344C1.94531 0.625 1.78125 0.707031 1.69922 0.871094Z" fill="#757575"/>
</svg>
