<svg width="10" height="12" viewBox="0 0 10 12" fill="none" xmlns="http://www.w3.org/2000/svg">
<path d="M8.375 5.25H7.625V2.625C7.625 1.17755 6.44745 0 5 0C3.55255 0 2.375 1.17755 2.375 2.625V5.25H1.625C1.21081 5.25 0.875 5.58581 0.875 6V11.25C0.875 11.6642 1.21081 12 1.625 12H8.375C8.78919 12 9.125 11.6642 9.125 11.25V6C9.125 5.58581 8.78919 5.25 8.375 5.25ZM5.375 9.30616V10.125C5.375 10.3321 5.20709 10.5 5 10.5C4.79291 10.5 4.625 10.3321 4.625 10.125V9.30614C4.18902 9.15115 3.875 8.73907 3.875 8.24998C3.875 7.6286 4.37862 7.12498 5 7.12498C5.62138 7.12498 6.125 7.6286 6.125 8.24998C6.125 8.73907 5.81098 9.15115 5.375 9.30616ZM3.875 5.25V2.625C3.875 2.00463 4.37963 1.5 5 1.5C5.62037 1.5 6.125 2.00463 6.125 2.625V5.25H3.875Z" fill="#EB5757"/>
</svg>
