<svg width="11" height="15" viewBox="0 0 11 15" fill="none" xmlns="http://www.w3.org/2000/svg">
<path d="M5.27344 0.75C3.08594 0.75 1.66406 1.65234 0.542969 3.26562C0.351562 3.53906 0.40625 3.94922 0.707031 4.14062L1.88281 5.04297C2.15625 5.26172 2.56641 5.20703 2.78516 4.93359C3.46875 4.08594 3.98828 3.59375 5.05469 3.59375C5.90234 3.59375 6.94141 4.11328 6.94141 4.93359C6.94141 5.5625 6.42188 5.86328 5.60156 6.32812C4.61719 6.875 3.33203 7.55859 3.33203 9.25391V9.5C3.33203 9.88281 3.63281 10.1562 3.98828 10.1562H5.98438C6.33984 10.1562 6.64062 9.88281 6.64062 9.5V9.36328C6.64062 8.1875 10.0586 8.13281 10.0586 4.96094C10.0586 2.58203 7.57031 0.75 5.27344 0.75ZM5 10.9766C3.93359 10.9766 3.08594 11.8242 3.08594 12.8633C3.08594 13.9023 3.93359 14.75 5 14.75C6.03906 14.75 6.88672 13.9023 6.88672 12.8633C6.88672 11.8242 6.03906 10.9766 5 10.9766Z" fill="#757575"/>
</svg>
