<svg width="18" height="15" viewBox="0 0 18 15" fill="none" xmlns="http://www.w3.org/2000/svg">
<path d="M6.375 7.75C8.28906 7.75 9.875 6.19141 9.875 4.25C9.875 2.33594 8.28906 0.75 6.375 0.75C4.43359 0.75 2.875 2.33594 2.875 4.25C2.875 6.19141 4.43359 7.75 6.375 7.75ZM8.80859 8.625H8.34375C7.74219 8.92578 7.08594 9.0625 6.375 9.0625C5.66406 9.0625 4.98047 8.92578 4.37891 8.625H3.91406C1.89062 8.625 0.25 10.293 0.25 12.3164V13.4375C0.25 14.1758 0.824219 14.75 1.5625 14.75H11.1875C11.8984 14.75 12.5 14.1758 12.5 13.4375V12.3164C12.5 10.293 10.832 8.625 8.80859 8.625ZM17.6406 5.125L16.875 4.35938C16.7656 4.22266 16.5469 4.22266 16.4375 4.35938L13.5664 7.20312L12.3086 5.94531C12.1992 5.80859 11.9805 5.80859 11.8438 5.94531L11.0781 6.71094C10.9688 6.82031 10.9688 7.03906 11.0781 7.17578L13.3203 9.41797C13.457 9.55469 13.6484 9.55469 13.7852 9.41797L17.6406 5.58984C17.7773 5.45312 17.7773 5.26172 17.6406 5.125Z" fill="#757575"/>
</svg>
