<svg width="12" height="12" viewBox="0 0 12 12" fill="none" xmlns="http://www.w3.org/2000/svg">
<path d="M8.625 0C7.17755 0 6 1.17755 6 2.625V5.25H1.5C1.08581 5.25 0.75 5.58581 0.75 6V11.25C0.75 11.6642 1.08581 12 1.5 12H8.25C8.66419 12 9 11.6642 9 11.25V6C9 5.58581 8.66419 5.25 8.25 5.25H7.5V2.625C7.5 2.00463 8.00463 1.5 8.625 1.5C9.24537 1.5 9.75 2.00463 9.75 2.625V4.5C9.75 4.91419 10.0858 5.25 10.5 5.25C10.9142 5.25 11.25 4.91419 11.25 4.5V2.625C11.25 1.17755 10.0725 0 8.625 0ZM5.25 9.30616V10.125C5.25 10.3321 5.08209 10.5 4.875 10.5C4.66791 10.5 4.5 10.3321 4.5 10.125V9.30614C4.06402 9.15115 3.75 8.73907 3.75 8.24998C3.75 7.6286 4.25363 7.12498 4.875 7.12498C5.49637 7.12498 6 7.6286 6 8.24998C6 8.73907 5.68598 9.15115 5.25 9.30616Z" fill="#9F9F9F"/>
</svg>
