<svg width="13" height="15" viewBox="0 0 13 15" fill="none" xmlns="http://www.w3.org/2000/svg">
<path d="M12.1875 1.125H8.90625L8.63281 0.632812C8.52344 0.414062 8.30469 0.25 8.05859 0.25H4.91406C4.66797 0.25 4.44922 0.414062 4.33984 0.632812L4.09375 1.125H0.8125C0.566406 1.125 0.375 1.34375 0.375 1.5625V2.4375C0.375 2.68359 0.566406 2.875 0.8125 2.875H12.1875C12.4062 2.875 12.625 2.68359 12.625 2.4375V1.5625C12.625 1.34375 12.4062 1.125 12.1875 1.125ZM1.82422 13.0195C1.85156 13.7305 2.42578 14.25 3.13672 14.25H9.83594C10.5469 14.25 11.1211 13.7305 11.1484 13.0195L11.75 3.75H1.25L1.82422 13.0195Z" fill="white"/>
</svg>
