<svg width="14" height="15" viewBox="0 0 14 15" fill="none" xmlns="http://www.w3.org/2000/svg">
<path d="M5.79688 6.90234C5.96094 6.90234 6.125 6.73828 6.125 6.57422V5.26172C6.125 5.07031 5.96094 4.93359 5.79688 4.93359H3.11719C3.99219 3.73047 5.38672 2.9375 7 2.9375C9.65234 2.9375 11.8125 5.09766 11.8125 7.75C11.8125 10.4297 9.65234 12.5625 7 12.5625C5.76953 12.5625 4.64844 12.125 3.80078 11.3594C3.66406 11.25 3.47266 11.25 3.36328 11.3867L2.43359 12.3164C2.29688 12.4531 2.29688 12.6719 2.43359 12.7812C3.63672 13.875 5.25 14.5312 7 14.5312C10.7461 14.5312 13.7812 11.5234 13.7812 7.77734C13.7812 4.03125 10.8008 1.02344 7.05469 0.996094C5.03125 0.96875 3.19922 1.84375 1.96875 3.23828V1.07812C1.96875 0.914062 1.80469 0.75 1.64062 0.75H0.328125C0.136719 0.75 0 0.914062 0 1.07812V6.57422C0 6.73828 0.136719 6.90234 0.328125 6.90234H5.79688Z" fill="#757575"/>
</svg>
