<svg width="24" height="24" viewBox="0 0 24 24" fill="none" xmlns="http://www.w3.org/2000/svg">
<rect width="24" height="24" rx="3" fill="#4392BB"/>
<path d="M14.25 17H10.3125C9.58594 17 9 16.4141 9 15.6875V8.75H7.3125C6.98438 8.75 6.75 9.00781 6.75 9.3125V17.9375C6.75 18.2656 6.98438 18.5 7.3125 18.5H13.6875C13.9922 18.5 14.25 18.2656 14.25 17.9375V17ZM14.25 8.9375V6.5H10.3125C9.98438 6.5 9.75 6.75781 9.75 7.0625V15.6875C9.75 16.0156 9.98438 16.25 10.3125 16.25H16.6875C16.9922 16.25 17.25 16.0156 17.25 15.6875V9.5H14.8125C14.4844 9.5 14.25 9.26562 14.25 8.9375ZM17.0625 8.21094L15.5391 6.6875C15.4219 6.57031 15.2812 6.5 15.1406 6.5H15V8.75H17.25V8.60938C17.25 8.46875 17.1797 8.32812 17.0625 8.21094Z" fill="white"/>
</svg>
