<svg width="15" height="13" viewBox="0 0 15 13" fill="none" xmlns="http://www.w3.org/2000/svg">
<path d="M4.80078 0.734375C4.74609 0.679688 4.66406 0.625 4.58203 0.625C4.47266 0.625 4.39062 0.679688 4.33594 0.734375L2.58594 2.45703L1.98438 1.85547C1.92969 1.80078 1.84766 1.77344 1.73828 1.77344C1.65625 1.77344 1.57422 1.80078 1.51953 1.85547L1.08203 2.29297C1.02734 2.34766 0.972656 2.42969 0.972656 2.51172C0.972656 2.62109 1.02734 2.70312 1.08203 2.75781L2.39453 4.04297C2.44922 4.09766 2.53125 4.15234 2.61328 4.15234C2.72266 4.15234 2.80469 4.09766 2.85938 4.04297L3.29688 3.63281L5.26562 1.63672C5.32031 1.58203 5.375 1.5 5.375 1.41797C5.375 1.33594 5.32031 1.25391 5.26562 1.17188L4.80078 0.734375ZM4.80078 5.08203C4.74609 5.02734 4.66406 5 4.58203 5C4.47266 5 4.39062 5.02734 4.33594 5.08203L2.58594 6.83203L1.98438 6.23047C1.92969 6.17578 1.84766 6.12109 1.73828 6.12109C1.65625 6.12109 1.57422 6.17578 1.51953 6.23047L1.08203 6.64062C1.02734 6.72266 0.972656 6.80469 0.972656 6.88672C0.972656 6.96875 1.02734 7.05078 1.08203 7.10547L2.39453 8.41797C2.44922 8.47266 2.53125 8.52734 2.61328 8.52734C2.72266 8.52734 2.80469 8.47266 2.85938 8.41797L3.29688 7.98047L5.26562 6.01172C5.32031 5.95703 5.375 5.875 5.375 5.79297C5.375 5.68359 5.32031 5.60156 5.26562 5.54688L4.80078 5.08203ZM2.75 9.8125C2.01172 9.8125 1.41016 10.4141 1.41016 11.125C1.41016 11.8633 2.01172 12.4375 2.75 12.4375C3.46094 12.4375 4.0625 11.8633 4.0625 11.125C4.0625 10.4141 3.46094 9.8125 2.75 9.8125ZM14.5625 10.25H6.6875C6.44141 10.25 6.25 10.4688 6.25 10.6875V11.5625C6.25 11.8086 6.44141 12 6.6875 12H14.5625C14.7812 12 15 11.8086 15 11.5625V10.6875C15 10.4688 14.7812 10.25 14.5625 10.25ZM14.5625 1.5H6.6875C6.44141 1.5 6.25 1.71875 6.25 1.9375V2.8125C6.25 3.05859 6.44141 3.25 6.6875 3.25H14.5625C14.7812 3.25 15 3.05859 15 2.8125V1.9375C15 1.71875 14.7812 1.5 14.5625 1.5ZM14.5625 5.875H6.6875C6.44141 5.875 6.25 6.09375 6.25 6.3125V7.1875C6.25 7.43359 6.44141 7.625 6.6875 7.625H14.5625C14.7812 7.625 15 7.43359 15 7.1875V6.3125C15 6.09375 14.7812 5.875 14.5625 5.875Z" fill="#757575"/>
</svg>
