<svg width="14" height="13" viewBox="0 0 14 13" fill="none" xmlns="http://www.w3.org/2000/svg">
<path d="M0.875 4.67188C0.875 4.86328 1.01172 5 1.20312 5H2.29688C2.46094 5 2.625 4.86328 2.625 4.67188V2.375H4.92188C5.08594 2.375 5.25 2.23828 5.25 2.04688V0.953125C5.25 0.789062 5.08594 0.625 4.92188 0.625H1.53125C1.14844 0.625 0.875 0.925781 0.875 1.28125V4.67188ZM8.75 0.953125V2.04688C8.75 2.23828 8.88672 2.375 9.07812 2.375H11.375V4.67188C11.375 4.86328 11.5117 5 11.7031 5H12.7969C12.9609 5 13.125 4.86328 13.125 4.67188V1.28125C13.125 0.925781 12.8242 0.625 12.4688 0.625H9.07812C8.88672 0.625 8.75 0.789062 8.75 0.953125ZM12.7969 8.5H11.7031C11.5117 8.5 11.375 8.66406 11.375 8.82812V11.125H9.07812C8.88672 11.125 8.75 11.2891 8.75 11.4531V12.5469C8.75 12.7383 8.88672 12.875 9.07812 12.875H12.4688C12.8242 12.875 13.125 12.6016 13.125 12.2188V8.82812C13.125 8.66406 12.9609 8.5 12.7969 8.5ZM5.25 12.5469V11.4531C5.25 11.2891 5.08594 11.125 4.92188 11.125H2.625V8.82812C2.625 8.66406 2.46094 8.5 2.29688 8.5H1.20312C1.01172 8.5 0.875 8.66406 0.875 8.82812V12.2188C0.875 12.6016 1.14844 12.875 1.53125 12.875H4.92188C5.08594 12.875 5.25 12.7383 5.25 12.5469Z" fill="#757575"/>
</svg>
