<svg width="16" height="15" viewBox="0 0 16 15" fill="none" xmlns="http://www.w3.org/2000/svg">
<path d="M8 0.75C6.08594 0.75 4.55469 2.30859 4.55469 4.19531C4.55469 5.75391 6.79688 8.54297 7.64453 9.58203C7.83594 9.77344 8.13672 9.77344 8.32812 9.58203C9.17578 8.54297 11.4453 5.75391 11.4453 4.19531C11.4453 2.30859 9.88672 0.75 8 0.75ZM8 5.34375C7.34375 5.34375 6.85156 4.85156 6.85156 4.19531C6.85156 3.56641 7.34375 3.04688 8 3.04688C8.62891 3.04688 9.14844 3.56641 9.14844 4.19531C9.14844 4.85156 8.62891 5.34375 8 5.34375ZM0.671875 6.65625C0.34375 6.79297 0.125 7.12109 0.125 7.47656V14.3125C0.125 14.6406 0.425781 14.8594 0.699219 14.7227L4.5 13V6.62891C4.25391 6.19141 4.03516 5.78125 3.89844 5.37109L0.671875 6.65625ZM8 10.5938C7.58984 10.5938 7.23438 10.4297 6.98828 10.1289C6.44141 9.5 5.86719 8.78906 5.375 8.02344V13L10.625 14.75V8.02344C10.1055 8.78906 9.53125 9.5 8.98438 10.1289C8.73828 10.4297 8.38281 10.5938 8 10.5938ZM15.2734 5.17969L11.5 6.875V14.75L15.3008 13.2461C15.6289 13.1094 15.875 12.7812 15.875 12.4258V5.58984C15.875 5.26172 15.5469 5.04297 15.2734 5.17969Z" fill="#757575"/>
</svg>
