<svg width="18" height="11" viewBox="0 0 18 11" fill="none" xmlns="http://www.w3.org/2000/svg">
<path d="M9.875 6.625H9.4375V4.21875C9.4375 4.10938 9.32812 4 9.21875 4H8.83594C8.69922 4 8.58984 4.05469 8.48047 4.13672L8.04297 4.41016C7.98828 4.4375 7.96094 4.51953 7.96094 4.57422C7.96094 4.62891 7.96094 4.68359 7.98828 4.71094L8.23438 5.06641C8.26172 5.12109 8.34375 5.17578 8.42578 5.17578C8.45312 5.17578 8.50781 5.14844 8.53516 5.12109H8.5625V6.625H8.125C7.98828 6.625 7.90625 6.73438 7.90625 6.84375V7.28125C7.90625 7.41797 7.98828 7.5 8.125 7.5H9.875C9.98438 7.5 10.0938 7.41797 10.0938 7.28125V6.84375C10.0938 6.73438 9.98438 6.625 9.875 6.625ZM16.875 0.5H1.125C0.632812 0.5 0.25 0.910156 0.25 1.375V10.125C0.25 10.6172 0.632812 11 1.125 11H16.875C17.3398 11 17.75 10.6172 17.75 10.125V1.375C17.75 0.910156 17.3398 0.5 16.875 0.5ZM1.5625 9.6875V7.9375C2.51953 7.9375 3.3125 8.73047 3.3125 9.6875H1.5625ZM1.5625 3.5625V1.8125H3.3125C3.3125 2.79688 2.51953 3.5625 1.5625 3.5625ZM9 8.8125C7.52344 8.8125 6.375 7.44531 6.375 5.75C6.375 4.08203 7.52344 2.6875 9 2.6875C10.4492 2.6875 11.625 4.08203 11.625 5.75C11.625 7.44531 10.4492 8.8125 9 8.8125ZM16.4375 9.6875H14.6875C14.6875 8.73047 15.4531 7.9375 16.4375 7.9375V9.6875ZM16.4375 3.5625C15.4531 3.5625 14.6875 2.79688 14.6875 1.8125H16.4375V3.5625Z" fill="#757575"/>
</svg>
