<svg width="14" height="15" viewBox="0 0 14 15" fill="none" xmlns="http://www.w3.org/2000/svg">
<path d="M7 0.96875C3.25391 0.96875 0.21875 4.03125 0.21875 7.75C0.21875 11.4961 3.25391 14.5312 7 14.5312C10.7188 14.5312 13.7812 11.4961 13.7812 7.75C13.7812 4.03125 10.7188 0.96875 7 0.96875ZM10.5547 4.19531C12.332 6 12.4688 8.73438 11.1016 10.6484L4.10156 3.64844C6.01562 2.28125 8.75 2.41797 10.5547 4.19531ZM3.41797 11.332C1.64062 9.52734 1.50391 6.79297 2.87109 4.87891L9.87109 11.8789C7.95703 13.2461 5.22266 13.1094 3.41797 11.332Z" fill="#757575"/>
</svg>
