<svg width="16" height="11" viewBox="0 0 16 11" fill="none" xmlns="http://www.w3.org/2000/svg">
<path d="M15.2188 0.5H2.53125C2.14844 0.5 1.875 0.800781 1.875 1.15625V1.375H0.78125C0.398438 1.375 0.125 1.67578 0.125 2.03125V9.46875C0.125 10.3164 0.808594 11 1.65625 11H14.5625C15.2734 11 15.875 10.4258 15.875 9.6875V1.15625C15.875 0.800781 15.5742 0.5 15.2188 0.5ZM1.65625 9.6875C1.51953 9.6875 1.4375 9.60547 1.4375 9.46875V2.6875H1.875V9.46875C1.875 9.60547 1.76562 9.6875 1.65625 9.6875ZM8.10938 9.25H3.95312C3.76172 9.25 3.625 9.11328 3.625 8.92188V8.70312C3.625 8.53906 3.76172 8.375 3.95312 8.375H8.10938C8.27344 8.375 8.4375 8.53906 8.4375 8.70312V8.92188C8.4375 9.11328 8.27344 9.25 8.10938 9.25ZM13.7969 9.25H9.64062C9.44922 9.25 9.3125 9.11328 9.3125 8.92188V8.70312C9.3125 8.53906 9.44922 8.375 9.64062 8.375H13.7969C13.9609 8.375 14.125 8.53906 14.125 8.70312V8.92188C14.125 9.11328 13.9609 9.25 13.7969 9.25ZM8.10938 6.625H3.95312C3.76172 6.625 3.625 6.48828 3.625 6.29688V6.07812C3.625 5.91406 3.76172 5.75 3.95312 5.75H8.10938C8.27344 5.75 8.4375 5.91406 8.4375 6.07812V6.29688C8.4375 6.48828 8.27344 6.625 8.10938 6.625ZM13.7969 6.625H9.64062C9.44922 6.625 9.3125 6.48828 9.3125 6.29688V6.07812C9.3125 5.91406 9.44922 5.75 9.64062 5.75H13.7969C13.9609 5.75 14.125 5.91406 14.125 6.07812V6.29688C14.125 6.48828 13.9609 6.625 13.7969 6.625ZM13.7969 4H3.95312C3.76172 4 3.625 3.86328 3.625 3.67188V2.57812C3.625 2.41406 3.76172 2.25 3.95312 2.25H13.7969C13.9609 2.25 14.125 2.41406 14.125 2.57812V3.67188C14.125 3.86328 13.9609 4 13.7969 4Z" fill="#757575"/>
</svg>
