<svg width="18" height="15" viewBox="0 0 18 15" fill="none" xmlns="http://www.w3.org/2000/svg">
<path d="M1.5625 0.75C0.824219 0.75 0.25 1.35156 0.25 2.0625V3.8125C0.25 4.05859 0.441406 4.25 0.6875 4.25H2.875V2.0625C2.875 1.35156 2.27344 0.75 1.5625 0.75ZM7.25 12.043V10.375H15.125V3.375C15.125 1.95312 13.9219 0.75 12.5 0.75H3.28516C3.55859 1.13281 3.75 1.57031 3.75 2.0625V12.125C3.75 13.1914 4.67969 14.0391 5.77344 13.875C6.64844 13.7109 7.25 12.918 7.25 12.043ZM8.125 11.25V12.125C8.125 13.5742 6.92188 14.75 5.5 14.75H14.6875C16.3555 14.75 17.75 13.3828 17.75 11.6875C17.75 11.4688 17.5312 11.25 17.3125 11.25H8.125Z" fill="#757575"/>
</svg>
