<svg width="11" height="14" viewBox="0 0 11 14" fill="none" xmlns="http://www.w3.org/2000/svg">
<path d="M9.71484 0.726562L8.75 1.84375L7.35352 0.726562C7.27734 0.675781 7.20117 0.625 7.125 0.625C7.02344 0.625 6.94727 0.675781 6.87109 0.726562L5.5 1.84375L4.10352 0.726562C4.02734 0.675781 3.95117 0.625 3.875 0.625C3.77344 0.625 3.69727 0.675781 3.62109 0.726562L2.25 1.84375L1.25977 0.726562C1.00586 0.523438 0.625 0.701172 0.625 1.03125V13.2188C0.625 13.5742 1.00586 13.752 1.25977 13.5488L2.25 12.4062L3.62109 13.5488C3.69727 13.5996 3.77344 13.6504 3.84961 13.6504C3.95117 13.6504 4.02734 13.5996 4.10352 13.5488L5.5 12.4062L6.87109 13.5488C6.94727 13.5996 7.02344 13.6504 7.09961 13.6504C7.20117 13.6504 7.27734 13.5996 7.35352 13.5488L8.75 12.4062L9.71484 13.5488C9.96875 13.752 10.375 13.5742 10.375 13.2188V1.03125C10.375 0.701172 9.99414 0.523438 9.71484 0.726562ZM8.75 9.76562C8.75 9.89258 8.64844 9.96875 8.54688 9.96875H2.45312C2.32617 9.96875 2.25 9.89258 2.25 9.76562V9.35938C2.25 9.25781 2.32617 9.15625 2.45312 9.15625H8.54688C8.64844 9.15625 8.75 9.25781 8.75 9.35938V9.76562ZM8.75 7.32812C8.75 7.45508 8.64844 7.53125 8.54688 7.53125H2.45312C2.32617 7.53125 2.25 7.45508 2.25 7.32812V6.92188C2.25 6.82031 2.32617 6.71875 2.45312 6.71875H8.54688C8.64844 6.71875 8.75 6.82031 8.75 6.92188V7.32812ZM8.75 4.89062C8.75 5.01758 8.64844 5.09375 8.54688 5.09375H2.45312C2.32617 5.09375 2.25 5.01758 2.25 4.89062V4.48438C2.25 4.38281 2.32617 4.28125 2.45312 4.28125H8.54688C8.64844 4.28125 8.75 4.38281 8.75 4.48438V4.89062Z" fill="white"/>
</svg>
