<svg width="18" height="15" viewBox="0 0 18 15" fill="none" xmlns="http://www.w3.org/2000/svg">
<path d="M16.9297 10.9766C17.0117 10.5938 17.0117 10.1836 16.9297 9.80078L17.6406 9.39062C17.7227 9.36328 17.75 9.25391 17.7227 9.17188C17.5312 8.57031 17.2305 8.05078 16.8203 7.58594C16.7656 7.53125 16.6562 7.50391 16.5742 7.55859L15.8633 7.96875C15.5625 7.72266 15.2344 7.50391 14.8516 7.39453V6.57422C14.8516 6.46484 14.7969 6.38281 14.7148 6.38281C14.0859 6.24609 13.4844 6.24609 12.8828 6.38281C12.8008 6.38281 12.7461 6.46484 12.7461 6.57422V7.39453C12.3633 7.50391 12.0352 7.72266 11.7344 7.96875L11.0234 7.55859C10.9414 7.50391 10.832 7.53125 10.7773 7.58594C10.3672 8.05078 10.0391 8.57031 9.875 9.17188C9.84766 9.25391 9.875 9.36328 9.95703 9.39062L10.668 9.80078C10.5859 10.1836 10.5859 10.5938 10.668 10.9766L9.95703 11.3867C9.875 11.4141 9.84766 11.5234 9.875 11.6055C10.0391 12.207 10.3672 12.7266 10.7773 13.1914C10.832 13.2461 10.9414 13.2734 11.0234 13.2188L11.7344 12.8086C12.0352 13.0547 12.3633 13.2734 12.7461 13.3828V14.2031C12.7461 14.3125 12.8008 14.3945 12.8828 14.3945C13.5117 14.5312 14.1133 14.5312 14.7148 14.3945C14.7969 14.3945 14.8516 14.3125 14.8516 14.2031V13.3828C15.2344 13.2734 15.5625 13.0547 15.8633 12.8086L16.5742 13.2188C16.6562 13.2734 16.7656 13.2461 16.8203 13.1914C17.2305 12.7266 17.5312 12.207 17.7227 11.6055C17.75 11.5234 17.7227 11.4141 17.6406 11.3867L16.9297 10.9766ZM13.8125 11.7148C13.0742 11.7148 12.4727 11.1133 12.4727 10.375C12.4727 9.66406 13.0742 9.0625 13.8125 9.0625C14.5234 9.0625 15.125 9.66406 15.125 10.375C15.125 11.1133 14.5234 11.7148 13.8125 11.7148ZM6.375 7.75C8.28906 7.75 9.875 6.19141 9.875 4.25C9.875 2.33594 8.28906 0.75 6.375 0.75C4.43359 0.75 2.875 2.33594 2.875 4.25C2.875 6.19141 4.43359 7.75 6.375 7.75ZM11.8711 13.957C11.7891 13.9297 11.7344 13.875 11.6797 13.8477L11.4609 13.9844C11.2969 14.0664 11.1055 14.1211 10.9141 14.1211C10.6406 14.1211 10.3398 13.9844 10.1484 13.7656C9.62891 13.2461 9.24609 12.5625 9.02734 11.8789C8.89062 11.3867 9.08203 10.8672 9.51953 10.6211L9.73828 10.4844C9.73828 10.4297 9.73828 10.3477 9.73828 10.293L9.51953 10.1562C9.08203 9.91016 8.89062 9.39062 9.02734 8.89844C9.05469 8.81641 9.10938 8.76172 9.13672 8.67969C9.02734 8.65234 8.91797 8.625 8.80859 8.625H8.34375C7.74219 8.92578 7.08594 9.0625 6.375 9.0625C5.66406 9.0625 4.98047 8.92578 4.37891 8.625H3.91406C1.89062 8.625 0.25 10.293 0.25 12.3164V13.4375C0.25 14.1758 0.824219 14.75 1.5625 14.75H11.1875C11.4609 14.75 11.707 14.668 11.9258 14.5312C11.8984 14.4219 11.8711 14.3125 11.8711 14.2031V13.957Z" fill="#757575"/>
</svg>
