<svg width="16" height="15" viewBox="0 0 16 15" fill="none" xmlns="http://www.w3.org/2000/svg">
<path d="M14.5898 2.80078L12.9492 1.16016C12.457 0.640625 11.6094 0.640625 11.0898 1.16016L9.55859 2.69141L13.0586 6.19141L14.5898 4.66016C15.1094 4.14062 15.1094 3.29297 14.5898 2.80078ZM7.86328 2.22656C7.42578 1.81641 6.74219 1.81641 6.30469 2.22656L3.05078 5.48047C2.88672 5.64453 2.88672 5.91797 3.05078 6.10938L3.67969 6.71094C3.84375 6.875 4.11719 6.875 4.30859 6.71094L7.07031 3.92188L7.69922 4.55078L3.54297 8.70703C2.14844 10.1016 1.21875 11.9609 1 14.0391C0.945312 14.4492 1.30078 14.8047 1.71094 14.75C3.78906 14.5312 5.64844 13.6016 7.04297 12.207L12.4297 6.82031L10.1602 4.55078L7.86328 2.22656Z" fill="#757575"/>
</svg>
