<svg width="18" height="13" viewBox="0 0 18 13" fill="none"
  xmlns="http://www.w3.org/2000/svg">
  <path d="M16.9297 9.10156C17.0117 8.71875 17.0117 8.30859 16.9297 7.92578L17.6406 7.51562C17.7227 7.48828 17.75 7.37891 17.7227 7.29688C17.5312 6.69531 17.2305 6.17578 16.8203 5.71094C16.7656 5.65625 16.6562 5.62891 16.5742 5.68359L15.8633 6.09375C15.5625 5.84766 15.2344 5.62891 14.8516 5.51953V4.69922C14.8516 4.58984 14.7969 4.50781 14.7148 4.50781C14.0859 4.37109 13.4844 4.37109 12.8828 4.50781C12.8008 4.50781 12.7461 4.58984 12.7461 4.69922V5.51953C12.3633 5.62891 12.0352 5.84766 11.7344 6.09375L11.0234 5.68359C10.9414 5.62891 10.832 5.65625 10.7773 5.71094C10.3672 6.17578 10.0391 6.69531 9.875 7.29688C9.84766 7.37891 9.875 7.48828 9.95703 7.51562L10.668 7.92578C10.5859 8.30859 10.5859 8.71875 10.668 9.10156L9.95703 9.51172C9.875 9.53906 9.84766 9.64844 9.875 9.73047C10.0391 10.332 10.3672 10.8516 10.7773 11.3164C10.832 11.3711 10.9414 11.3984 11.0234 11.3438L11.7344 10.9336C12.0352 11.1797 12.3633 11.3984 12.7461 11.5078V12.3281C12.7461 12.4375 12.8008 12.5195 12.8828 12.5195C13.5117 12.6562 14.1133 12.6562 14.7148 12.5195C14.7969 12.5195 14.8516 12.4375 14.8516 12.3281V11.5078C15.2344 11.3984 15.5625 11.1797 15.8633 10.9336L16.5742 11.3438C16.6562 11.3984 16.7656 11.3711 16.8203 11.3164C17.2305 10.8516 17.5312 10.332 17.7227 9.73047C17.75 9.64844 17.7227 9.53906 17.6406 9.51172L16.9297 9.10156ZM13.8125 9.83984C13.0742 9.83984 12.4727 9.23828 12.4727 8.5C12.4727 7.78906 13.0742 7.1875 13.8125 7.1875C14.5234 7.1875 15.125 7.78906 15.125 8.5C15.125 9.23828 14.5234 9.83984 13.8125 9.83984ZM2.875 5.875C3.83203 5.875 4.625 5.10938 4.625 4.125C4.625 3.16797 3.83203 2.375 2.875 2.375C1.89062 2.375 1.125 3.16797 1.125 4.125C1.125 5.10938 1.89062 5.875 2.875 5.875ZM9 6.75C9.02734 6.75 9.08203 6.75 9.13672 6.75C9.35547 6.14844 9.71094 5.60156 10.1211 5.13672C10.3398 4.91797 10.6133 4.78125 10.9141 4.78125C11.1055 4.78125 11.2969 4.83594 11.4609 4.91797L11.6797 5.05469C11.707 5.02734 11.707 5.02734 11.7344 5.02734C11.9258 4.61719 12.0352 4.17969 12.0352 3.71484C12.0352 2.01953 10.668 0.652344 8.97266 0.652344C7.30469 0.652344 5.9375 2.01953 5.9375 3.6875C5.9375 5.38281 7.30469 6.75 9 6.75ZM11.8711 12.082C11.7891 12.0547 11.7344 12 11.6797 11.9727C11.4609 12.1094 11.2695 12.2461 10.9141 12.2461C10.6406 12.2461 10.3398 12.1094 10.1484 11.8906C9.62891 11.3438 9.24609 10.6875 9.02734 10.0039C8.75391 9.04688 9.71094 8.63672 9.73828 8.60938C9.73828 8.55469 9.73828 8.47266 9.73828 8.41797L9.51953 8.28125C9.41016 8.22656 9.32812 8.14453 9.24609 8.0625C9.16406 8.0625 9.08203 8.0625 9 8.0625C8.31641 8.0625 7.6875 7.89844 7.11328 7.625H6.89453C5.14453 7.625 3.75 9.04688 3.75 10.7969V11.5625C3.75 12.3008 4.32422 12.875 5.0625 12.875H12.0352C11.9258 12.7109 11.8711 12.5469 11.8711 12.3281V12.082ZM4.98047 7.26953C4.65234 6.96875 4.21484 6.75 3.75 6.75H2C1.01562 6.75 0.25 7.54297 0.25 8.5V9.375C0.25 9.86719 0.632812 10.25 1.125 10.25H2.90234C3.09375 8.96484 3.85938 7.87109 4.98047 7.26953Z"/>
</svg>
