<svg width="12" height="12" viewBox="0 0 12 12" fill="none" xmlns="http://www.w3.org/2000/svg">
<path d="M10.875 4.90625H7.21875V1.25C7.21875 0.818359 6.83789 0.4375 6.40625 0.4375H5.59375C5.13672 0.4375 4.78125 0.818359 4.78125 1.25V4.90625H1.125C0.667969 4.90625 0.3125 5.28711 0.3125 5.71875V6.53125C0.3125 6.98828 0.667969 7.34375 1.125 7.34375H4.78125V11C4.78125 11.457 5.13672 11.8125 5.59375 11.8125H6.40625C6.83789 11.8125 7.21875 11.457 7.21875 11V7.34375H10.875C11.3066 7.34375 11.6875 6.98828 11.6875 6.53125V5.71875C11.6875 5.28711 11.3066 4.90625 10.875 4.90625Z" fill="white"/>
</svg>
