<svg width="17" height="24" viewBox="0 0 17 16" fill="none" xmlns="http://www.w3.org/2000/svg">
<path d="M14.5 6V2.4375C14.5 2.15625 14.375 1.90625 14.1875 1.71875L12.7812 0.3125C12.5938 0.125 12.3438 0 12.0625 0H3.5C2.9375 0 2.5 0.46875 2.5 1V6C1.375 6 0.5 6.90625 0.5 8V11.5C0.5 11.7812 0.71875 12 1 12H2.5V15C2.5 15.5625 2.9375 16 3.5 16H13.5C14.0312 16 14.5 15.5625 14.5 15V12H16C16.25 12 16.5 11.7812 16.5 11.5V8C16.5 6.90625 15.5938 6 14.5 6ZM12.5 14H4.5V11H12.5V14ZM12.5 7H4.5V2H10.5V3.5C10.5 3.78125 10.7188 4 11 4H12.5V7ZM14 9.25C13.5625 9.25 13.25 8.9375 13.25 8.5C13.25 8.09375 13.5625 7.75 14 7.75C14.4062 7.75 14.75 8.09375 14.75 8.5C14.75 8.9375 14.4062 9.25 14 9.25Z" fill="#4392BB"/>
</svg>
