<svg width="13" height="14" viewBox="0 0 13 14" fill="none" xmlns="http://www.w3.org/2000/svg">
<path d="M11.375 5.5V2.60547C11.375 2.37695 11.2734 2.17383 11.1211 2.02148L9.97852 0.878906C9.82617 0.726562 9.62305 0.625 9.39453 0.625H2.4375C1.98047 0.625 1.625 1.00586 1.625 1.4375V5.5C0.710938 5.5 0 6.23633 0 7.125V9.96875C0 10.1973 0.177734 10.375 0.40625 10.375H1.625V12.8125C1.625 13.2695 1.98047 13.625 2.4375 13.625H10.5625C10.9941 13.625 11.375 13.2695 11.375 12.8125V10.375H12.5938C12.7969 10.375 13 10.1973 13 9.96875V7.125C13 6.23633 12.2637 5.5 11.375 5.5ZM9.75 12H3.25V9.5625H9.75V12ZM9.75 6.3125H3.25V2.25H8.125V3.46875C8.125 3.69727 8.30273 3.875 8.53125 3.875H9.75V6.3125ZM10.9688 8.14062C10.6133 8.14062 10.3594 7.88672 10.3594 7.53125C10.3594 7.20117 10.6133 6.92188 10.9688 6.92188C11.2988 6.92188 11.5781 7.20117 11.5781 7.53125C11.5781 7.88672 11.2988 8.14062 10.9688 8.14062Z" fill="white"/>
</svg>
