<svg width="16" height="15" viewBox="0 0 16 15" fill="none" xmlns="http://www.w3.org/2000/svg">
<path d="M15.4375 8.625H13.25V11.25L12.375 10.6758L11.5 11.25V8.625H9.3125C9.06641 8.625 8.875 8.84375 8.875 9.0625V14.3125C8.875 14.5586 9.06641 14.75 9.3125 14.75H15.4375C15.6562 14.75 15.875 14.5586 15.875 14.3125V9.0625C15.875 8.84375 15.6562 8.625 15.4375 8.625ZM4.9375 6.875H11.0625C11.2812 6.875 11.5 6.68359 11.5 6.4375V1.1875C11.5 0.96875 11.2812 0.75 11.0625 0.75H8.875V3.375L8 2.80078L7.125 3.375V0.75H4.9375C4.69141 0.75 4.5 0.96875 4.5 1.1875V6.4375C4.5 6.68359 4.69141 6.875 4.9375 6.875ZM6.6875 8.625H4.5V11.25L3.625 10.6758L2.75 11.25V8.625H0.5625C0.316406 8.625 0.125 8.84375 0.125 9.0625V14.3125C0.125 14.5586 0.316406 14.75 0.5625 14.75H6.6875C6.90625 14.75 7.125 14.5586 7.125 14.3125V9.0625C7.125 8.84375 6.90625 8.625 6.6875 8.625Z" fill="#757575"/>
</svg>
