<svg width="14" height="15" viewBox="0 0 14 15" fill="none" xmlns="http://www.w3.org/2000/svg">
<path d="M12.0312 0.605469L12.1406 2.875C10.9102 1.39844 9.05078 0.46875 7 0.46875C6.97266 0.46875 6.97266 0.46875 6.97266 0.46875C3.66406 0.46875 0.902344 2.84766 0.328125 5.99219C0.328125 6.01953 0.328125 6.04688 0.328125 6.07422C0.328125 6.23828 0.464844 6.375 0.65625 6.375H1.99609C2.13281 6.375 2.26953 6.29297 2.29688 6.12891C2.81641 4.02344 4.70312 2.46484 6.97266 2.46484C8.64062 2.46484 10.1172 3.28516 10.9648 4.57031L8.20312 4.43359H8.17578C8.01172 4.43359 7.84766 4.59766 7.84766 4.76172V6.07422C7.84766 6.23828 8.01172 6.40234 8.17578 6.40234H13.6719C13.8359 6.40234 14 6.23828 14 6.07422V0.578125C14 0.414062 13.8359 0.25 13.6719 0.25H12.3594C12.1953 0.277344 12.0312 0.414062 12.0312 0.578125C12.0312 0.605469 12.0312 0.605469 12.0312 0.605469ZM6.97266 12.0625C5.30469 12.0625 3.85547 11.2422 2.98047 9.95703L5.76953 10.0938H5.79688C5.96094 10.0938 6.125 9.92969 6.125 9.76562V8.45312C6.125 8.28906 5.96094 8.125 5.79688 8.125H0.328125C0.136719 8.125 0 8.28906 0 8.45312V13.9219C0 14.1133 0.136719 14.25 0.328125 14.25H1.61328C1.77734 14.25 1.94141 14.1133 1.94141 13.9219L1.83203 11.6523C3.0625 13.1289 4.92188 14.0586 6.97266 14.0586V14.0312C10.2812 14.0312 13.043 11.6797 13.6445 8.53516C13.6445 8.50781 13.6445 8.48047 13.6445 8.45312C13.6445 8.28906 13.5078 8.125 13.3164 8.125H11.9766C11.8125 8.15234 11.7031 8.23438 11.6484 8.39844C11.1562 10.5039 9.24219 12.0625 6.97266 12.0625Z" fill="#4392BB"/>
</svg>
