<svg width="12" height="15" viewBox="0 0 12 15" fill="none" xmlns="http://www.w3.org/2000/svg">
<path d="M11.25 3.8125C11.25 3.10156 10.6484 2.5 9.9375 2.5H7.75C7.75 1.54297 6.95703 0.75 6 0.75C5.01562 0.75 4.25 1.54297 4.25 2.5H2.0625C1.32422 2.5 0.75 3.10156 0.75 3.8125V13.4375C0.75 14.1758 1.32422 14.75 2.0625 14.75H9.9375C10.6484 14.75 11.25 14.1758 11.25 13.4375V3.8125ZM6 1.84375C6.35547 1.84375 6.65625 2.14453 6.65625 2.5C6.65625 2.88281 6.35547 3.15625 6 3.15625C5.61719 3.15625 5.34375 2.88281 5.34375 2.5C5.34375 2.14453 5.61719 1.84375 6 1.84375ZM8.625 4.96094C8.625 5.07031 8.54297 5.125 8.46094 5.125H3.53906C3.42969 5.125 3.375 5.07031 3.375 4.96094V4.41406C3.375 4.33203 3.42969 4.25 3.53906 4.25H8.46094C8.54297 4.25 8.625 4.33203 8.625 4.41406V4.96094Z" fill="#757575"/>
</svg>
