<svg width="12" height="15" viewBox="0 0 12 15" fill="none" xmlns="http://www.w3.org/2000/svg">
<path d="M9.9375 2.5H7.75C7.75 1.54297 6.95703 0.75 6 0.75C5.01562 0.75 4.25 1.54297 4.25 2.5H2.0625C1.32422 2.5 0.75 3.10156 0.75 3.8125V13.4375C0.75 14.1758 1.32422 14.75 2.0625 14.75H9.9375C10.6484 14.75 11.25 14.1758 11.25 13.4375V3.8125C11.25 3.10156 10.6484 2.5 9.9375 2.5ZM6 1.84375C6.35547 1.84375 6.65625 2.14453 6.65625 2.5C6.65625 2.88281 6.35547 3.15625 6 3.15625C5.61719 3.15625 5.34375 2.88281 5.34375 2.5C5.34375 2.14453 5.61719 1.84375 6 1.84375ZM9.30859 8.1875L5.39844 12.0703C5.26172 12.207 5.04297 12.207 4.93359 12.0703L2.66406 9.80078C2.52734 9.66406 2.55469 9.44531 2.66406 9.33594L3.45703 8.54297C3.56641 8.43359 3.78516 8.43359 3.92188 8.57031L5.17969 9.82812L8.07812 6.95703C8.1875 6.82031 8.40625 6.82031 8.54297 6.95703L9.30859 7.72266C9.44531 7.85938 9.41797 8.07812 9.30859 8.1875Z" fill="#757575"/>
</svg>
