<svg width="18" height="15" viewBox="0 0 18 15" fill="none" xmlns="http://www.w3.org/2000/svg">
<path d="M14.0312 10.375H3.96875C3.85938 10.375 3.75 10.4844 3.75 10.5938V11.9062C3.75 12.043 3.83203 12.125 3.96875 12.125H14.0312C14.1406 12.125 14.25 12.043 14.25 11.9062V10.5938C14.25 10.4844 14.1406 10.375 14.0312 10.375ZM14.0312 13H3.96875C3.83203 13 3.75 13.1094 3.75 13.2188V14.5312C3.75 14.668 3.83203 14.75 3.96875 14.75H14.0312C14.1406 14.75 14.25 14.668 14.25 14.5312V13.2188C14.25 13.1094 14.1406 13 14.0312 13ZM14.0312 7.75H3.96875C3.85938 7.75 3.75 7.85938 3.75 7.96875V9.28125C3.75 9.41797 3.85938 9.5 3.96875 9.5H14.0312C14.1406 9.5 14.25 9.41797 14.25 9.28125V7.96875C14.25 7.85938 14.1406 7.75 14.0312 7.75ZM16.9297 3.94922L9.49219 0.859375C9.32812 0.804688 9.16406 0.777344 8.97266 0.777344C8.80859 0.777344 8.64453 0.804688 8.48047 0.859375L1.04297 3.94922C0.550781 4.16797 0.25 4.63281 0.25 5.17969V14.5312C0.25 14.668 0.332031 14.75 0.46875 14.75H2.65625C2.76562 14.75 2.875 14.668 2.875 14.5312V7.75C2.875 7.28516 3.25781 6.875 3.75 6.875H14.2227C14.7148 6.875 15.125 7.28516 15.125 7.75V14.5312C15.125 14.668 15.207 14.75 15.3438 14.75H17.5312C17.6406 14.75 17.75 14.668 17.75 14.5312V5.17969C17.75 4.63281 17.4219 4.16797 16.9297 3.94922Z" fill="#757575"/>
</svg>
