<svg width="12" height="11" viewBox="0 0 12 11" fill="none" xmlns="http://www.w3.org/2000/svg">
<path d="M10.8984 2.54688L8.95312 0.601562C8.74219 0.390625 8.46094 0.25 8.15625 0.25H1.875C1.24219 0.25 0.75 0.765625 0.75 1.375V9.625C0.75 10.2578 1.24219 10.75 1.875 10.75H10.125C10.7344 10.75 11.25 10.2578 11.25 9.625V3.34375C11.25 3.03906 11.1094 2.75781 10.8984 2.54688ZM6 9.25C5.15625 9.25 4.5 8.59375 4.5 7.75C4.5 6.92969 5.15625 6.25 6 6.25C6.82031 6.25 7.5 6.92969 7.5 7.75C7.5 8.59375 6.82031 9.25 6 9.25ZM8.25 2.125V4.46875C8.25 4.63281 8.10938 4.75 7.96875 4.75H2.53125C2.36719 4.75 2.25 4.63281 2.25 4.46875V2.03125C2.25 1.89062 2.36719 1.75 2.53125 1.75H7.875C7.94531 1.75 8.01562 1.79688 8.08594 1.84375L8.15625 1.91406C8.20312 1.98438 8.25 2.05469 8.25 2.125Z" fill="white"/>
</svg>
