<svg width="14" height="15" viewBox="0 0 14 15" fill="none" xmlns="http://www.w3.org/2000/svg">
<path d="M13.3164 9.39062L12.1406 8.73438C12.2773 8.07812 12.2773 7.44922 12.1406 6.79297L13.3164 6.13672C13.4531 6.05469 13.5078 5.89062 13.4531 5.75391C13.1523 4.76953 12.6328 3.89453 11.9766 3.15625C11.8672 3.04688 11.7031 3.01953 11.5664 3.10156L10.3906 3.75781C9.89844 3.34766 9.35156 3.01953 8.75 2.80078V1.46094C8.75 1.32422 8.64062 1.1875 8.47656 1.16016C7.46484 0.914062 6.45312 0.941406 5.49609 1.16016C5.33203 1.1875 5.25 1.32422 5.25 1.46094V2.80078C4.62109 3.01953 4.07422 3.34766 3.58203 3.78516L2.40625 3.10156C2.26953 3.01953 2.10547 3.04688 1.99609 3.15625C1.33984 3.89453 0.820312 4.76953 0.519531 5.75391C0.464844 5.89062 0.519531 6.05469 0.65625 6.13672L1.83203 6.79297C1.72266 7.44922 1.72266 8.07812 1.83203 8.73438L0.65625 9.39062C0.519531 9.47266 0.464844 9.63672 0.519531 9.77344C0.820312 10.7578 1.33984 11.6328 1.99609 12.3711C2.10547 12.4805 2.26953 12.5078 2.40625 12.4258L3.58203 11.7695C4.07422 12.1797 4.62109 12.5078 5.25 12.7266V14.0664C5.25 14.2031 5.35938 14.3398 5.49609 14.3945C6.50781 14.6133 7.51953 14.5859 8.47656 14.3945C8.64062 14.3398 8.75 14.2031 8.75 14.0664V12.7266C9.35156 12.5078 9.89844 12.1797 10.3906 11.7695L11.5664 12.4258C11.7031 12.5078 11.8672 12.4805 11.9766 12.3711C12.6602 11.6328 13.1523 10.7578 13.4805 9.77344C13.5078 9.63672 13.4531 9.47266 13.3164 9.39062ZM7 9.9375C5.76953 9.9375 4.8125 8.98047 4.8125 7.75C4.8125 6.54688 5.76953 5.5625 7 5.5625C8.20312 5.5625 9.1875 6.54688 9.1875 7.75C9.1875 8.98047 8.20312 9.9375 7 9.9375Z" fill="#757575"/>
</svg>
