<svg width="18" height="15" viewBox="0 0 18 15" fill="none" xmlns="http://www.w3.org/2000/svg">
<path d="M14.25 5.97266C14.5234 6.02734 14.8242 6.02734 15.0977 5.97266L15.3438 6.38281C15.4258 6.51953 15.5898 6.57422 15.7539 6.51953C16.0547 6.41016 16.3555 6.21875 16.6289 6.02734C16.7383 5.91797 16.793 5.72656 16.7109 5.58984L16.4648 5.20703C16.6562 4.98828 16.8203 4.71484 16.9023 4.44141H17.3672C17.5312 4.44141 17.668 4.33203 17.6953 4.16797C17.75 3.8125 17.75 3.48438 17.6953 3.15625C17.668 2.99219 17.5312 2.85547 17.3672 2.85547H16.9023C16.8203 2.58203 16.6562 2.33594 16.4648 2.11719L16.7109 1.73438C16.793 1.57031 16.7383 1.40625 16.6289 1.29688C16.3555 1.07812 16.0547 0.914062 15.7539 0.777344C15.5898 0.722656 15.4258 0.777344 15.3438 0.941406L15.0977 1.32422C14.8242 1.26953 14.5234 1.26953 14.25 1.32422L14.0039 0.941406C13.9219 0.777344 13.7578 0.722656 13.5938 0.777344C13.293 0.914062 12.9922 1.07812 12.7188 1.29688C12.6094 1.40625 12.5547 1.57031 12.6367 1.73438L12.8828 2.11719C12.6914 2.33594 12.5273 2.58203 12.4453 2.85547H11.9805C11.8164 2.85547 11.6797 2.99219 11.6523 3.15625C11.5977 3.48438 11.5977 3.83984 11.6523 4.16797C11.6797 4.33203 11.8164 4.44141 11.9805 4.44141H12.4453C12.5273 4.71484 12.6914 4.98828 12.8828 5.20703L12.6367 5.58984C12.5547 5.72656 12.6094 5.91797 12.7188 6.02734C12.9922 6.21875 13.293 6.41016 13.5938 6.51953C13.7578 6.57422 13.9219 6.51953 14.0039 6.38281L14.25 5.97266ZM13.9492 4.38672C13.1562 3.32031 14.332 2.11719 15.3984 2.9375C16.2188 3.97656 15.0156 5.17969 13.9492 4.38672ZM10.8047 8.59766C10.9141 8.02344 10.9141 7.42188 10.8047 6.84766L11.7344 6.38281C12.0078 6.21875 12.1172 5.89062 12.0078 5.58984C11.7617 4.93359 11.2969 4.33203 10.832 3.78516C10.6406 3.53906 10.2852 3.48438 10.0117 3.64844L9.21875 4.11328C8.78125 3.73047 8.26172 3.42969 7.71484 3.23828V2.33594C7.71484 2.00781 7.49609 1.73438 7.16797 1.67969C6.48438 1.57031 5.77344 1.57031 5.08984 1.67969C4.78906 1.73438 4.57031 2.00781 4.57031 2.33594V3.23828C3.99609 3.42969 3.50391 3.73047 3.06641 4.11328L2.27344 3.64844C1.97266 3.48438 1.64453 3.56641 1.42578 3.78516C0.988281 4.33203 0.523438 4.93359 0.277344 5.58984C0.167969 5.89062 0.277344 6.21875 0.578125 6.38281L1.48047 6.84766C1.37109 7.42188 1.37109 8.02344 1.48047 8.59766L0.578125 9.03516C0.277344 9.19922 0.167969 9.55469 0.277344 9.82812C0.523438 10.5117 0.988281 11.1133 1.42578 11.6328C1.64453 11.8789 2 11.9336 2.27344 11.7695L3.06641 11.332C3.50391 11.6875 3.99609 11.9883 4.57031 12.1797V13.1094C4.57031 13.4375 4.78906 13.7109 5.11719 13.7656C5.80078 13.875 6.51172 13.875 7.16797 13.7656C7.49609 13.7109 7.71484 13.4375 7.71484 13.1094V12.1797C8.26172 11.9883 8.78125 11.6875 9.21875 11.332L10.0117 11.7969C10.2852 11.9336 10.6406 11.8789 10.832 11.6328C11.2969 11.1133 11.7617 10.5117 12.0078 9.82812C12.1172 9.52734 12.0078 9.19922 11.7344 9.03516L10.8047 8.59766ZM7.57812 9.17188C5.47266 10.7852 3.06641 8.37891 4.70703 6.27344C6.8125 4.66016 9.19141 7.06641 7.57812 9.17188ZM14.25 14.1484C14.5234 14.2031 14.8242 14.2031 15.0977 14.1484L15.3438 14.5586C15.4258 14.6953 15.5898 14.75 15.7539 14.6953C16.0547 14.5859 16.3555 14.3945 16.6289 14.1758C16.7383 14.0938 16.793 13.9023 16.7109 13.7656L16.4648 13.3555C16.6562 13.1367 16.8203 12.8906 16.9023 12.6172H17.3672C17.5312 12.6172 17.668 12.5078 17.6953 12.3438C17.75 11.9883 17.75 11.6602 17.6953 11.332C17.668 11.168 17.5312 11.0312 17.3672 11.0312H16.9023C16.8203 10.7578 16.6562 10.5117 16.4648 10.293L16.7109 9.91016C16.793 9.74609 16.7383 9.58203 16.6289 9.47266C16.3555 9.25391 16.0547 9.08984 15.7539 8.95312C15.5898 8.89844 15.4258 8.95312 15.3438 9.11719L15.0977 9.5C14.8242 9.44531 14.5234 9.44531 14.25 9.5L14.0039 9.11719C13.9219 8.95312 13.7578 8.89844 13.5938 8.95312C13.293 9.08984 12.9922 9.25391 12.7188 9.47266C12.6094 9.58203 12.5547 9.74609 12.6367 9.91016L12.8828 10.293C12.6914 10.5117 12.5273 10.7578 12.4453 11.0312H11.9805C11.8164 11.0312 11.6797 11.168 11.6523 11.332C11.5977 11.6602 11.5977 12.0156 11.6523 12.3438C11.6797 12.5078 11.8164 12.6172 11.9805 12.6172H12.4453C12.5273 12.8906 12.6914 13.1367 12.8828 13.3555L12.6367 13.7656C12.5547 13.9023 12.6094 14.0938 12.7188 14.1758C12.9922 14.3945 13.293 14.5859 13.5938 14.6953C13.7578 14.75 13.9219 14.6953 14.0039 14.5586L14.25 14.1484ZM13.9492 12.5352C13.1562 11.4961 14.332 10.293 15.3984 11.1133C16.2188 12.1523 15.0156 13.3555 13.9492 12.5352Z" fill="#757575"/>
</svg>
