<svg width="18" height="15" viewBox="0 0 18 15" fill="none"
  xmlns="http://www.w3.org/2000/svg">
  <path d="M17.3125 10.375H16.875V7.42188C16.875 7.09375 16.7109 6.73828 16.4648 6.49219L13.7578 3.78516C13.5117 3.53906 13.1562 3.375 12.8281 3.375H11.625V2.0625C11.625 1.35156 11.0234 0.75 10.3125 0.75H3.3125C2.57422 0.75 2 1.35156 2 2.0625V3.375H0.46875C0.332031 3.375 0.25 3.48438 0.25 3.59375V4.03125C0.25 4.16797 0.332031 4.25 0.46875 4.25H7.90625C8.01562 4.25 8.125 4.35938 8.125 4.46875V4.90625C8.125 5.04297 8.01562 5.125 7.90625 5.125H1.34375C1.20703 5.125 1.125 5.23438 1.125 5.34375V5.78125C1.125 5.91797 1.20703 6 1.34375 6H7.03125C7.14062 6 7.25 6.10938 7.25 6.21875V6.65625C7.25 6.79297 7.14062 6.875 7.03125 6.875H0.46875C0.332031 6.875 0.25 6.98438 0.25 7.09375V7.53125C0.25 7.66797 0.332031 7.75 0.46875 7.75H6.15625C6.26562 7.75 6.375 7.85938 6.375 7.96875V8.40625C6.375 8.54297 6.26562 8.625 6.15625 8.625H2V12.125C2 13.5742 3.17578 14.75 4.625 14.75C6.07422 14.75 7.25 13.5742 7.25 12.125H10.75C10.75 13.5742 11.9258 14.75 13.375 14.75C14.8242 14.75 16 13.5742 16 12.125H17.3125C17.5312 12.125 17.75 11.9336 17.75 11.6875V10.8125C17.75 10.5938 17.5312 10.375 17.3125 10.375ZM4.625 13.4375C3.88672 13.4375 3.3125 12.8633 3.3125 12.125C3.3125 11.4141 3.88672 10.8125 4.625 10.8125C5.33594 10.8125 5.9375 11.4141 5.9375 12.125C5.9375 12.8633 5.33594 13.4375 4.625 13.4375ZM13.375 13.4375C12.6367 13.4375 12.0625 12.8633 12.0625 12.125C12.0625 11.4141 12.6367 10.8125 13.375 10.8125C14.0859 10.8125 14.6875 11.4141 14.6875 12.125C14.6875 12.8633 14.0859 13.4375 13.375 13.4375ZM15.5625 7.75H11.625V4.6875H12.8281L15.5625 7.42188V7.75Z"/>
</svg>
