<svg width="9" height="12" viewBox="0 0 9 12" fill="none" xmlns="http://www.w3.org/2000/svg">
<path d="M4.03516 5.77734C4.28125 6.02344 4.69141 6.02344 4.96484 5.77734L8.68359 2.05859C8.92969 1.78516 8.92969 1.375 8.68359 1.12891L8.05469 0.5C7.78125 0.253906 7.37109 0.253906 7.125 0.5L4.47266 3.15234L1.84766 0.5C1.60156 0.253906 1.19141 0.253906 0.917969 0.5L0.316406 1.12891C0.0429688 1.375 0.0429688 1.78516 0.316406 2.05859L4.03516 5.77734ZM4.96484 11.0273L8.68359 7.30859C8.92969 7.03516 8.92969 6.625 8.68359 6.37891L8.05469 5.75C7.80859 5.50391 7.37109 5.50391 7.125 5.75L4.5 8.40234L1.84766 5.75C1.60156 5.50391 1.19141 5.50391 0.917969 5.75L0.316406 6.37891C0.0429688 6.625 0.0429688 7.03516 0.316406 7.30859L4.03516 11.0273C4.28125 11.2734 4.69141 11.2734 4.96484 11.0273Z" fill="#4392BB"/>
</svg>
