<svg width="12" height="15" viewBox="0 0 12 15" fill="none" xmlns="http://www.w3.org/2000/svg">
<path d="M11.25 4.6875C11.25 3.48438 10.2656 2.5 9.0625 2.5C7.83203 2.5 6.875 3.48438 6.875 4.6875C6.875 5.69922 7.53125 6.54688 8.43359 6.79297C8.40625 7.23047 8.32422 7.58594 8.13281 7.80469C7.72266 8.32422 6.79297 8.43359 5.80859 8.51562C5.04297 8.57031 4.22266 8.65234 3.59375 8.98047V5.04297C4.46875 4.76953 5.125 3.92188 5.125 2.9375C5.125 1.73438 4.14062 0.75 2.9375 0.75C1.70703 0.75 0.75 1.73438 0.75 2.9375C0.75 3.92188 1.37891 4.76953 2.28125 5.04297V10.4844C1.37891 10.7578 0.75 11.6055 0.75 12.5625C0.75 13.793 1.70703 14.75 2.9375 14.75C4.14062 14.75 5.125 13.793 5.125 12.5625C5.125 11.6328 4.52344 10.8398 3.70312 10.5391C3.78516 10.4023 3.92188 10.2656 4.11328 10.1562C4.55078 9.9375 5.23438 9.88281 5.91797 9.82812C7.09375 9.71875 8.37891 9.58203 9.17188 8.625C9.55469 8.16016 9.74609 7.53125 9.74609 6.76562C10.6211 6.49219 11.25 5.67188 11.25 4.6875ZM2.9375 2.5C3.15625 2.5 3.375 2.71875 3.375 2.9375C3.375 3.18359 3.15625 3.375 2.9375 3.375C2.69141 3.375 2.5 3.18359 2.5 2.9375C2.5 2.71875 2.69141 2.5 2.9375 2.5ZM2.9375 13C2.69141 13 2.5 12.8086 2.5 12.5625C2.5 12.3438 2.69141 12.125 2.9375 12.125C3.15625 12.125 3.375 12.3438 3.375 12.5625C3.375 12.8086 3.15625 13 2.9375 13ZM9.0625 4.25C9.28125 4.25 9.5 4.46875 9.5 4.6875C9.5 4.93359 9.28125 5.125 9.0625 5.125C8.81641 5.125 8.625 4.93359 8.625 4.6875C8.625 4.46875 8.81641 4.25 9.0625 4.25Z" fill="#757575"/>
</svg>
