<svg width="15" height="15" viewBox="0 0 15 15" fill="none" xmlns="http://www.w3.org/2000/svg">
<path d="M0 7.66797C0 8.02344 0.136719 8.35156 0.382812 8.59766L6.15234 14.3672C6.67188 14.8867 7.51953 14.8867 8.01172 14.3672L13.5898 8.78906C14.1094 8.29688 14.1094 7.44922 13.5898 6.92969L7.82031 1.16016C7.57422 0.914062 7.24609 0.75 6.89062 0.75H1.3125C0.574219 0.75 0 1.35156 0 2.0625V7.66797ZM3.0625 2.5C3.77344 2.5 4.375 3.10156 4.375 3.8125C4.375 4.55078 3.77344 5.125 3.0625 5.125C2.32422 5.125 1.75 4.55078 1.75 3.8125C1.75 3.10156 2.32422 2.5 3.0625 2.5Z" fill="#757575"/>
</svg>
