<svg width="14" height="5" viewBox="0 0 14 5" fill="none" xmlns="http://www.w3.org/2000/svg">
<path d="M8.96875 2.75C8.96875 1.68359 8.06641 0.78125 7 0.78125C5.90625 0.78125 5.03125 1.68359 5.03125 2.75C5.03125 3.84375 5.90625 4.71875 7 4.71875C8.06641 4.71875 8.96875 3.84375 8.96875 2.75ZM11.8125 0.78125C10.7188 0.78125 9.84375 1.68359 9.84375 2.75C9.84375 3.84375 10.7188 4.71875 11.8125 4.71875C12.8789 4.71875 13.7812 3.84375 13.7812 2.75C13.7812 1.68359 12.8789 0.78125 11.8125 0.78125ZM2.1875 0.78125C1.09375 0.78125 0.21875 1.68359 0.21875 2.75C0.21875 3.84375 1.09375 4.71875 2.1875 4.71875C3.25391 4.71875 4.15625 3.84375 4.15625 2.75C4.15625 1.68359 3.25391 0.78125 2.1875 0.78125Z" fill="#757575"/>
</svg>
