<svg width="16" height="16" viewBox="0 0 16 16" fill="none" xmlns="http://www.w3.org/2000/svg">
<path d="M8 0.25C3.71875 0.25 0.25 3.71875 0.25 8C0.25 12.2812 3.71875 15.75 8 15.75C12.2812 15.75 15.75 12.2812 15.75 8C15.75 3.71875 12.2812 0.25 8 0.25ZM8 3.25C9.5 3.25 10.75 4.5 10.75 6C10.75 7.53125 9.5 8.75 8 8.75C6.46875 8.75 5.25 7.53125 5.25 6C5.25 4.5 6.46875 3.25 8 3.25ZM8 14C6.15625 14 4.5 13.1875 3.40625 11.875C4 10.7812 5.15625 10 6.5 10C6.5625 10 6.625 10.0312 6.71875 10.0625C7.125 10.1875 7.53125 10.25 8 10.25C8.4375 10.25 8.875 10.1875 9.25 10.0625C9.34375 10.0312 9.40625 10 9.5 10C10.8125 10 11.9688 10.7812 12.5625 11.875C11.4688 13.1875 9.8125 14 8 14Z" fill="#4392BB"/>
</svg>
