<svg width="24" height="25" viewBox="0 0 24 25" fill="none" xmlns="http://www.w3.org/2000/svg">
<path d="M13.875 18.5004H10.125C9.50156 18.5004 9 17.9988 9 17.3754V9.50039H4.88906C4.05469 9.50039 3.6375 8.49258 4.22812 7.90195L11.3578 0.767578C11.7094 0.416016 12.2859 0.416016 12.6375 0.767578L19.7719 7.90195C20.3625 8.49258 19.9453 9.50039 19.1109 9.50039H15V17.3754C15 17.9988 14.4984 18.5004 13.875 18.5004ZM24 18.1254V23.3754C24 23.9988 23.4984 24.5004 22.875 24.5004H1.125C0.501562 24.5004 0 23.9988 0 23.3754V18.1254C0 17.502 0.501562 17.0004 1.125 17.0004H7.5V17.3754C7.5 18.8238 8.67656 20.0004 10.125 20.0004H13.875C15.3234 20.0004 16.5 18.8238 16.5 17.3754V17.0004H22.875C23.4984 17.0004 24 17.502 24 18.1254ZM18.1875 22.2504C18.1875 21.7348 17.7656 21.3129 17.25 21.3129C16.7344 21.3129 16.3125 21.7348 16.3125 22.2504C16.3125 22.766 16.7344 23.1879 17.25 23.1879C17.7656 23.1879 18.1875 22.766 18.1875 22.2504ZM21.1875 22.2504C21.1875 21.7348 20.7656 21.3129 20.25 21.3129C19.7344 21.3129 19.3125 21.7348 19.3125 22.2504C19.3125 22.766 19.7344 23.1879 20.25 23.1879C20.7656 23.1879 21.1875 22.766 21.1875 22.2504Z" fill="#4392BB"/>
</svg>
